<?xml version="1.0" encoding="UTF-8"?>
<!-- Do not edit this file with editors other than draw.io -->
<!DOCTYPE svg PUBLIC "-//W3C//DTD SVG 1.1//EN" "http://www.w3.org/Graphics/SVG/1.1/DTD/svg11.dtd">
<svg xmlns="http://www.w3.org/2000/svg" version="1.1" viewBox="0 0 1187 476" width="1187" height="476"><defs></defs><g><g class="title" data-source-line="1"><text x="418.93" y="23" font-size="14" fill="#000000" xml:space="preserve" style="white-space: pre" font-weight="bold" font-family="sans-serif">Этап 1: Инициализация и запуск Activity в Discord</text></g><g class="message" data-entity-1="part1" data-entity-2="part2" id="msg1" data-source-line="10"></g><g class="message" data-entity-1="part2" data-entity-2="part3" id="msg2" data-source-line="11"></g><g class="message" data-entity-1="part3" data-entity-2="part2" id="msg3" data-source-line="12"></g><g class="message" data-entity-1="part3" data-entity-2="part2" id="msg4" data-source-line="13"></g><g class="message" data-entity-1="part2" data-entity-2="part1" id="msg5" data-source-line="14"></g><g class="message" data-entity-1="part1" data-entity-2="part5" id="msg6" data-source-line="18"></g><g class="message" data-entity-1="part6" data-entity-2="part5" id="msg7" data-source-line="19"></g><g class="message" data-entity-1="part4" data-entity-2="part5" id="msg8" data-source-line="20"></g><g class="participant-lifeline" data-qualified-name="Player1" data-entity-uid="part1" id="part1-lifeline" data-source-line="3"><g><title>.....1</title><rect x="26.33" y="113" width="8" height="287" fill="#00000000" stroke="#00000000" stroke-width="0"></rect><line x1="30" y1="113" x2="30" y2="400" stroke="#181818" stroke-width="0.50" stroke-dasharray="5,5"></line></g></g><g class="participant-lifeline" data-qualified-name="Discord" data-entity-uid="part2" id="part2-lifeline" data-source-line="4"><g><title>Discord</title><rect x="243.40" y="113" width="8" height="287" fill="#00000000" stroke="#00000000" stroke-width="0"></rect><line x1="246.68" y1="113" x2="246.68" y2="400" stroke="#181818" stroke-width="0.50" stroke-dasharray="5,5"></line></g></g><g class="participant-lifeline" data-qualified-name="Server" data-entity-uid="part3" id="part3-lifeline" data-source-line="5"><g><title>...... CrossCrypt</title><rect x="608.82" y="113" width="8" height="287" fill="#00000000" stroke="#00000000" stroke-width="0"></rect><line x1="612.60" y1="113" x2="612.60" y2="400" stroke="#181818" stroke-width="0.50" stroke-dasharray="5,5"></line></g></g><g class="participant-lifeline" data-qualified-name="Player3" data-entity-uid="part4" id="part4-lifeline" data-source-line="6"><g><title>.....3</title><rect x="712.36" y="113" width="8" height="287" fill="#00000000" stroke="#00000000" stroke-width="0"></rect><line x1="716.03" y1="113" x2="716.03" y2="400" stroke="#181818" stroke-width="0.50" stroke-dasharray="5,5"></line></g></g><g class="participant-lifeline" data-qualified-name="Client" data-entity-uid="part5" id="part5-lifeline" data-source-line="7"><g><title>...... CrossCrypt</title><rect x="932.18" y="113" width="8" height="287" fill="#00000000" stroke="#00000000" stroke-width="0"></rect><line x1="935.19" y1="113" x2="935.19" y2="400" stroke="#181818" stroke-width="0.50" stroke-dasharray="5,5"></line></g></g><g class="participant-lifeline" data-qualified-name="Player2" data-entity-uid="part6" id="part6-lifeline" data-source-line="8"><g><title>.....2</title><rect x="1152.00" y="113" width="8" height="287" fill="#00000000" stroke="#00000000" stroke-width="0"></rect><line x1="1155.67" y1="113" x2="1155.67" y2="400" stroke="#181818" stroke-width="0.50" stroke-dasharray="5,5"></line></g></g><g class="participant participant-head" data-qualified-name="Player1" data-entity-uid="part1" id="part1-head" data-source-line="3"><text x="5" y="110" font-size="14" fill="#000000" xml:space="preserve" style="white-space: pre" font-family="sans-serif">Игрок1</text><circle cx="30.33" cy="45.50" r="8" fill="#E2E2F0" stroke="#181818" stroke-width="0.50"></circle><path d="M30.33,53.50 L30.33,80.50 M17.33,61.50 L43.33,61.50 M30.33,80.50 L17.33,95.50 M30.33,80.50 L43.33,95.50" fill="#00000000" stroke="#181818" stroke-width="0.50"></path></g><g class="participant participant-tail" data-qualified-name="Player1" data-entity-uid="part1" id="part1-tail" data-source-line="3"><text x="5" y="412" font-size="14" fill="#000000" xml:space="preserve" style="white-space: pre" font-family="sans-serif">Игрок1</text><circle cx="30.33" cy="423.50" r="8" fill="#E2E2F0" stroke="#181818" stroke-width="0.50"></circle><path d="M30.33,431.50 L30.33,458.50 M17.33,439.50 L43.33,439.50 M30.33,458.50 L17.33,473.50 M30.33,458.50 L43.33,473.50" fill="#00000000" stroke="#181818" stroke-width="0.50"></path></g><g class="participant participant-head" data-qualified-name="Discord" data-entity-uid="part2" id="part2-head" data-source-line="4"><rect x="216.68" y="82" width="61.46" height="30" rx="2.50" ry="2.50" fill="#E2E2F0" stroke="#181818" stroke-width="0.50"></rect><text x="223.68" y="102" font-size="14" fill="#000000" xml:space="preserve" style="white-space: pre" font-family="sans-serif">Discord</text></g><g class="participant participant-tail" data-qualified-name="Discord" data-entity-uid="part2" id="part2-tail" data-source-line="4"><rect x="216.68" y="399" width="61.46" height="30" rx="2.50" ry="2.50" fill="#E2E2F0" stroke="#181818" stroke-width="0.50"></rect><text x="223.68" y="419" font-size="14" fill="#000000" xml:space="preserve" style="white-space: pre" font-family="sans-serif">Discord</text></g><g class="participant participant-head" data-qualified-name="Server" data-entity-uid="part3" id="part3-head" data-source-line="5"><rect x="544.60" y="82" width="136.43" height="30" rx="2.50" ry="2.50" fill="#E2E2F0" stroke="#181818" stroke-width="0.50"></rect><text x="551.60" y="102" font-size="14" fill="#000000" xml:space="preserve" style="white-space: pre" font-family="sans-serif">Сервер CrossCrypt</text></g><g class="participant participant-tail" data-qualified-name="Server" data-entity-uid="part3" id="part3-tail" data-source-line="5"><rect x="544.60" y="399" width="136.43" height="30" rx="2.50" ry="2.50" fill="#E2E2F0" stroke="#181818" stroke-width="0.50"></rect><text x="551.60" y="419" font-size="14" fill="#000000" xml:space="preserve" style="white-space: pre" font-family="sans-serif">Сервер CrossCrypt</text></g><g class="participant participant-head" data-qualified-name="Player3" data-entity-uid="part4" id="part4-head" data-source-line="6"><text x="691.03" y="110" font-size="14" fill="#000000" xml:space="preserve" style="white-space: pre" font-family="sans-serif">Игрок3</text><circle cx="716.36" cy="45.50" r="8" fill="#E2E2F0" stroke="#181818" stroke-width="0.50"></circle><path d="M716.36,53.50 L716.36,80.50 M703.36,61.50 L729.36,61.50 M716.36,80.50 L703.36,95.50 M716.36,80.50 L729.36,95.50" fill="#00000000" stroke="#181818" stroke-width="0.50"></path></g><g class="participant participant-tail" data-qualified-name="Player3" data-entity-uid="part4" id="part4-tail" data-source-line="6"><text x="691.03" y="412" font-size="14" fill="#000000" xml:space="preserve" style="white-space: pre" font-family="sans-serif">Игрок3</text><circle cx="716.36" cy="423.50" r="8" fill="#E2E2F0" stroke="#181818" stroke-width="0.50"></circle><path d="M716.36,431.50 L716.36,458.50 M703.36,439.50 L729.36,439.50 M716.36,458.50 L703.36,473.50 M716.36,458.50 L729.36,473.50" fill="#00000000" stroke="#181818" stroke-width="0.50"></path></g><g class="participant participant-head" data-qualified-name="Client" data-entity-uid="part5" id="part5-head" data-source-line="7"><rect x="869.19" y="82" width="133.97" height="30" rx="2.50" ry="2.50" fill="#E2E2F0" stroke="#181818" stroke-width="0.50"></rect><text x="876.19" y="102" font-size="14" fill="#000000" xml:space="preserve" style="white-space: pre" font-family="sans-serif">Клиент CrossCrypt</text></g><g class="participant participant-tail" data-qualified-name="Client" data-entity-uid="part5" id="part5-tail" data-source-line="7"><rect x="869.19" y="399" width="133.97" height="30" rx="2.50" ry="2.50" fill="#E2E2F0" stroke="#181818" stroke-width="0.50"></rect><text x="876.19" y="419" font-size="14" fill="#000000" xml:space="preserve" style="white-space: pre" font-family="sans-serif">Клиент CrossCrypt</text></g><g class="participant participant-head" data-qualified-name="Player2" data-entity-uid="part6" id="part6-head" data-source-line="8"><text x="1130.67" y="110" font-size="14" fill="#000000" xml:space="preserve" style="white-space: pre" font-family="sans-serif">Игрок2</text><circle cx="1156.00" cy="45.50" r="8" fill="#E2E2F0" stroke="#181818" stroke-width="0.50"></circle><path d="M1156.00,53.50 L1156.00,80.50 M1143.00,61.50 L1169.00,61.50 M1156.00,80.50 L1143.00,95.50 M1156.00,80.50 L1169.00,95.50" fill="#00000000" stroke="#181818" stroke-width="0.50"></path></g><g class="participant participant-tail" data-qualified-name="Player2" data-entity-uid="part6" id="part6-tail" data-source-line="8"><text x="1130.67" y="412" font-size="14" fill="#000000" xml:space="preserve" style="white-space: pre" font-family="sans-serif">Игрок2</text><circle cx="1156.00" cy="423.50" r="8" fill="#E2E2F0" stroke="#181818" stroke-width="0.50"></circle><path d="M1156.00,431.50 L1156.00,458.50 M1143.00,439.50 L1169.00,439.50 M1156.00,458.50 L1143.00,473.50 M1156.00,458.50 L1169.00,473.50" fill="#00000000" stroke="#181818" stroke-width="0.50"></path></g><g class="message" data-entity-1="part1" data-entity-2="part2" id="msg1" data-source-line="10"><polygon points="235.40,140 245.40,144 235.40,148 239.40,144" fill="#181818" stroke="#181818" stroke-width="1"></polygon><line x1="30.33" y1="144" x2="241.40" y2="144" stroke="#181818" stroke-width="1"></line><text x="37.33" y="139" font-size="13" fill="#000000" xml:space="preserve" style="white-space: pre" font-family="sans-serif">/crosscrypt difficulty=(сложность)</text></g><g class="message" data-entity-1="part2" data-entity-2="part3" id="msg2" data-source-line="11"><polygon points="600.82,169 610.82,173 600.82,177 604.82,173" fill="#181818" stroke="#181818" stroke-width="1"></polygon><line x1="247.40" y1="173" x2="606.82" y2="173" stroke="#181818" stroke-width="1"></line><text x="254.40" y="168" font-size="13" fill="#000000" xml:space="preserve" style="white-space: pre" font-family="sans-serif">Вебхук взаимодействия</text></g><g class="message" data-entity-1="part3" data-entity-2="part2" id="msg3" data-source-line="12"><polygon points="258.40,198 248.40,202 258.40,206 254.40,202" fill="#181818" stroke="#181818" stroke-width="1"></polygon><line x1="252.40" y1="202" x2="611.82" y2="202" stroke="#181818" stroke-width="1"></line><text x="264.40" y="197" font-size="13" fill="#000000" xml:space="preserve" style="white-space: pre" font-family="sans-serif">Создание экземпляра Activity (встроенного приложения)</text></g><g class="message" data-entity-1="part3" data-entity-2="part2" id="msg4" data-source-line="13"><polygon points="258.40,227 248.40,231 258.40,235 254.40,231" fill="#181818" stroke="#181818" stroke-width="1"></polygon><line x1="252.40" y1="231" x2="611.82" y2="231" stroke="#181818" stroke-width="1"></line><text x="264.40" y="226" font-size="13" fill="#000000" xml:space="preserve" style="white-space: pre" font-family="sans-serif">Ссылка-приглашение в Activity</text></g><g class="message" data-entity-1="part2" data-entity-2="part1" id="msg5" data-source-line="14"><polygon points="41.33,256 31.33,260 41.33,264 37.33,260" fill="#181818" stroke="#181818" stroke-width="1"></polygon><line x1="35.33" y1="260" x2="246.40" y2="260" stroke="#181818" stroke-width="1"></line><text x="47.33" y="255" font-size="13" fill="#000000" xml:space="preserve" style="white-space: pre" font-family="sans-serif">Открыть Activity CrossCrypt</text></g><path d="M7,273 L7,298 L738,298 L738,283 L728,273 L7,273" fill="#FEFFDD" stroke="#181818" stroke-width="0.50"></path><path d="M728,273 L728,283 L738,283 L728,273" fill="#FEFFDD" stroke="#181818" stroke-width="0.50"></path><text x="219.89" y="290" font-size="13" fill="#000000" xml:space="preserve" style="white-space: pre" font-family="sans-serif">Каждый игрок присоединяется к Activity в Discord</text><g class="message" data-entity-1="part1" data-entity-2="part5" id="msg6" data-source-line="18"><polygon points="924.18,320 934.18,324 924.18,328 928.18,324" fill="#181818" stroke="#181818" stroke-width="1"></polygon><line x1="30.33" y1="324" x2="930.18" y2="324" stroke="#181818" stroke-width="1"></line><text x="37.33" y="319" font-size="13" fill="#000000" xml:space="preserve" style="white-space: pre" font-family="sans-serif">Запуск встроенного приложения</text></g><g class="message" data-entity-1="part6" data-entity-2="part5" id="msg7" data-source-line="19"><polygon points="947.18,349 937.18,353 947.18,357 943.18,353" fill="#181818" stroke="#181818" stroke-width="1"></polygon><line x1="941.18" y1="353" x2="1155.00" y2="353" stroke="#181818" stroke-width="1"></line><text x="953.18" y="348" font-size="13" fill="#000000" xml:space="preserve" style="white-space: pre" font-family="sans-serif">Запуск встроенного приложения</text></g><g class="message" data-entity-1="part4" data-entity-2="part5" id="msg8" data-source-line="20"><polygon points="924.18,378 934.18,382 924.18,386 928.18,382" fill="#181818" stroke="#181818" stroke-width="1"></polygon><line x1="716.36" y1="382" x2="930.18" y2="382" stroke="#181818" stroke-width="1"></line><text x="723.36" y="377" font-size="13" fill="#000000" xml:space="preserve" style="white-space: pre" font-family="sans-serif">Запуск встроенного приложения</text></g></g></svg>