<?xml version="1.0" encoding="UTF-8"?>
<!-- Do not edit this file with editors other than draw.io -->
<!DOCTYPE svg PUBLIC "-//W3C//DTD SVG 1.1//EN" "http://www.w3.org/Graphics/SVG/1.1/DTD/svg11.dtd">
<svg xmlns="http://www.w3.org/2000/svg" version="1.1" viewBox="0 0 1219 687" width="1219" height="687"><defs></defs><g><g class="title" data-source-line="1"><text x="415.77" y="23" font-size="14" fill="#000000" xml:space="preserve" style="white-space: pre" font-weight="bold" font-family="sans-serif">Этап 3: Игровой геймплей (WebSocket) и финал раунда</text></g><rect x="10" y="130" width="882.85" height="191" fill="#00000000" stroke="#000000" stroke-width="1.50"></rect><g class="message" data-entity-1="part1" data-entity-2="part2" id="msg1" data-source-line="12"></g><g class="message" data-entity-1="part3" data-entity-2="part2" id="msg2" data-source-line="13"></g><g class="message" data-entity-1="part5" data-entity-2="part2" id="msg3" data-source-line="14"></g><g class="message" data-entity-1="part2" data-entity-2="part1" id="msg4" data-source-line="16"></g><g class="message" data-entity-1="part2" data-entity-2="part5" id="msg5" data-source-line="17"></g><g class="message" data-entity-1="part2" data-entity-2="part3" id="msg6" data-source-line="18"></g><g class="message" data-entity-1="part4" data-entity-2="part6" id="msg7" data-source-line="21"></g><g class="message" data-entity-1="part6" data-entity-2="part4" id="msg8" data-source-line="22"></g><g class="message" data-entity-1="part2" data-entity-2="part7" id="msg9" data-source-line="28"></g><g class="message" data-entity-1="part7" data-entity-2="part2" id="msg10" data-source-line="29"></g><g class="message" data-entity-1="part2" data-entity-2="part1" id="msg11" data-source-line="31"></g><g class="message" data-entity-1="part2" data-entity-2="part5" id="msg12" data-source-line="32"></g><g class="message" data-entity-1="part2" data-entity-2="part3" id="msg13" data-source-line="33"></g><g class="participant-lifeline" data-qualified-name="Player1" data-entity-uid="part1" id="part1-lifeline" data-source-line="3"><g><title>.....1</title><rect x="41.33" y="113" width="8" height="498" fill="#00000000" stroke="#00000000" stroke-width="0"></rect><line x1="45" y1="113" x2="45" y2="611" stroke="#181818" stroke-width="0.50" stroke-dasharray="5,5"></line></g></g><g class="participant-lifeline" data-qualified-name="Server" data-entity-uid="part2" id="part2-lifeline" data-source-line="4"><g><title>...... CrossCrypt</title><rect x="345.11" y="113" width="8" height="498" fill="#00000000" stroke="#00000000" stroke-width="0"></rect><line x1="348.90" y1="113" x2="348.90" y2="611" stroke="#181818" stroke-width="0.50" stroke-dasharray="5,5"></line></g></g><g class="participant-lifeline" data-qualified-name="Player3" data-entity-uid="part3" id="part3-lifeline" data-source-line="5"><g><title>.....3</title><rect x="648.90" y="113" width="8" height="498" fill="#00000000" stroke="#00000000" stroke-width="0"></rect><line x1="652.57" y1="113" x2="652.57" y2="611" stroke="#181818" stroke-width="0.50" stroke-dasharray="5,5"></line></g></g><g class="participant-lifeline" data-qualified-name="Client" data-entity-uid="part4" id="part4-lifeline" data-source-line="6"><g><title>...... CrossCrypt</title><rect x="751.21" y="113" width="8" height="498" fill="#00000000" stroke="#00000000" stroke-width="0"></rect><line x1="754.22" y1="113" x2="754.22" y2="611" stroke="#181818" stroke-width="0.50" stroke-dasharray="5,5"></line></g></g><g class="participant-lifeline" data-qualified-name="Player2" data-entity-uid="part5" id="part5-lifeline" data-source-line="7"><g><title>.....2</title><rect x="853.52" y="113" width="8" height="498" fill="#00000000" stroke="#00000000" stroke-width="0"></rect><line x1="857.19" y1="113" x2="857.19" y2="611" stroke="#181818" stroke-width="0.50" stroke-dasharray="5,5"></line></g></g><g class="participant-lifeline" data-qualified-name="SDK" data-entity-uid="part6" id="part6-lifeline" data-source-line="8"><g><title>Discord SDK</title><rect x="1064.40" y="113" width="8" height="498" fill="#00000000" stroke="#00000000" stroke-width="0"></rect><line x1="1068.33" y1="113" x2="1068.33" y2="611" stroke="#181818" stroke-width="0.50" stroke-dasharray="5,5"></line></g></g><g class="participant-lifeline" data-qualified-name="DiscordAPI" data-entity-uid="part7" id="part7-lifeline" data-source-line="9"><g><title>Discord API</title><rect x="1165.42" y="113" width="8" height="498" fill="#00000000" stroke="#00000000" stroke-width="0"></rect><line x1="1168.46" y1="113" x2="1168.46" y2="611" stroke="#181818" stroke-width="0.50" stroke-dasharray="5,5"></line></g></g><g class="participant participant-head" data-qualified-name="Player1" data-entity-uid="part1" id="part1-head" data-source-line="3"><text x="20" y="110" font-size="14" fill="#000000" xml:space="preserve" style="white-space: pre" font-family="sans-serif">Игрок1</text><circle cx="45.33" cy="45.50" r="8" fill="#E2E2F0" stroke="#181818" stroke-width="0.50"></circle><path d="M45.33,53.50 L45.33,80.50 M32.33,61.50 L58.33,61.50 M45.33,80.50 L32.33,95.50 M45.33,80.50 L58.33,95.50" fill="#00000000" stroke="#181818" stroke-width="0.50"></path></g><g class="participant participant-tail" data-qualified-name="Player1" data-entity-uid="part1" id="part1-tail" data-source-line="3"><text x="20" y="623" font-size="14" fill="#000000" xml:space="preserve" style="white-space: pre" font-family="sans-serif">Игрок1</text><circle cx="45.33" cy="634.50" r="8" fill="#E2E2F0" stroke="#181818" stroke-width="0.50"></circle><path d="M45.33,642.50 L45.33,669.50 M32.33,650.50 L58.33,650.50 M45.33,669.50 L32.33,684.50 M45.33,669.50 L58.33,684.50" fill="#00000000" stroke="#181818" stroke-width="0.50"></path></g><g class="participant participant-head" data-qualified-name="Server" data-entity-uid="part2" id="part2-head" data-source-line="4"><rect x="280.90" y="82" width="136.43" height="30" rx="2.50" ry="2.50" fill="#E2E2F0" stroke="#181818" stroke-width="0.50"></rect><text x="287.90" y="102" font-size="14" fill="#000000" xml:space="preserve" style="white-space: pre" font-family="sans-serif">Сервер CrossCrypt</text></g><g class="participant participant-tail" data-qualified-name="Server" data-entity-uid="part2" id="part2-tail" data-source-line="4"><rect x="280.90" y="610" width="136.43" height="30" rx="2.50" ry="2.50" fill="#E2E2F0" stroke="#181818" stroke-width="0.50"></rect><text x="287.90" y="630" font-size="14" fill="#000000" xml:space="preserve" style="white-space: pre" font-family="sans-serif">Сервер CrossCrypt</text></g><g class="participant participant-head" data-qualified-name="Player3" data-entity-uid="part3" id="part3-head" data-source-line="5"><text x="627.57" y="110" font-size="14" fill="#000000" xml:space="preserve" style="white-space: pre" font-family="sans-serif">Игрок3</text><circle cx="652.90" cy="45.50" r="8" fill="#E2E2F0" stroke="#181818" stroke-width="0.50"></circle><path d="M652.90,53.50 L652.90,80.50 M639.90,61.50 L665.90,61.50 M652.90,80.50 L639.90,95.50 M652.90,80.50 L665.90,95.50" fill="#00000000" stroke="#181818" stroke-width="0.50"></path></g><g class="participant participant-tail" data-qualified-name="Player3" data-entity-uid="part3" id="part3-tail" data-source-line="5"><text x="627.57" y="623" font-size="14" fill="#000000" xml:space="preserve" style="white-space: pre" font-family="sans-serif">Игрок3</text><circle cx="652.90" cy="634.50" r="8" fill="#E2E2F0" stroke="#181818" stroke-width="0.50"></circle><path d="M652.90,642.50 L652.90,669.50 M639.90,650.50 L665.90,650.50 M652.90,669.50 L639.90,684.50 M652.90,669.50 L665.90,684.50" fill="#00000000" stroke="#181818" stroke-width="0.50"></path></g><g class="participant participant-head" data-qualified-name="Client" data-entity-uid="part4" id="part4-head" data-source-line="6"><rect x="688.22" y="82" width="133.97" height="30" rx="2.50" ry="2.50" fill="#E2E2F0" stroke="#181818" stroke-width="0.50"></rect><text x="695.22" y="102" font-size="14" fill="#000000" xml:space="preserve" style="white-space: pre" font-family="sans-serif">Клиент CrossCrypt</text></g><g class="participant participant-tail" data-qualified-name="Client" data-entity-uid="part4" id="part4-tail" data-source-line="6"><rect x="688.22" y="610" width="133.97" height="30" rx="2.50" ry="2.50" fill="#E2E2F0" stroke="#181818" stroke-width="0.50"></rect><text x="695.22" y="630" font-size="14" fill="#000000" xml:space="preserve" style="white-space: pre" font-family="sans-serif">Клиент CrossCrypt</text></g><g class="participant participant-head" data-qualified-name="Player2" data-entity-uid="part5" id="part5-head" data-source-line="7"><text x="832.19" y="110" font-size="14" fill="#000000" xml:space="preserve" style="white-space: pre" font-family="sans-serif">Игрок2</text><circle cx="857.52" cy="45.50" r="8" fill="#E2E2F0" stroke="#181818" stroke-width="0.50"></circle><path d="M857.52,53.50 L857.52,80.50 M844.52,61.50 L870.52,61.50 M857.52,80.50 L844.52,95.50 M857.52,80.50 L870.52,95.50" fill="#00000000" stroke="#181818" stroke-width="0.50"></path></g><g class="participant participant-tail" data-qualified-name="Player2" data-entity-uid="part5" id="part5-tail" data-source-line="7"><text x="832.19" y="623" font-size="14" fill="#000000" xml:space="preserve" style="white-space: pre" font-family="sans-serif">Игрок2</text><circle cx="857.52" cy="634.50" r="8" fill="#E2E2F0" stroke="#181818" stroke-width="0.50"></circle><path d="M857.52,642.50 L857.52,669.50 M844.52,650.50 L870.52,650.50 M857.52,669.50 L844.52,684.50 M857.52,669.50 L870.52,684.50" fill="#00000000" stroke="#181818" stroke-width="0.50"></path></g><g class="participant participant-head" data-qualified-name="SDK" data-entity-uid="part6" id="part6-head" data-source-line="8"><rect x="1021.33" y="82" width="94.13" height="30" rx="2.50" ry="2.50" fill="#E2E2F0" stroke="#181818" stroke-width="0.50"></rect><text x="1028.33" y="102" font-size="14" fill="#000000" xml:space="preserve" style="white-space: pre" font-family="sans-serif">Discord SDK</text></g><g class="participant participant-tail" data-qualified-name="SDK" data-entity-uid="part6" id="part6-tail" data-source-line="8"><rect x="1021.33" y="610" width="94.13" height="30" rx="2.50" ry="2.50" fill="#E2E2F0" stroke="#181818" stroke-width="0.50"></rect><text x="1028.33" y="630" font-size="14" fill="#000000" xml:space="preserve" style="white-space: pre" font-family="sans-serif">Discord SDK</text></g><g class="participant participant-head" data-qualified-name="DiscordAPI" data-entity-uid="part7" id="part7-head" data-source-line="9"><rect x="1125.46" y="82" width="87.91" height="30" rx="2.50" ry="2.50" fill="#E2E2F0" stroke="#181818" stroke-width="0.50"></rect><text x="1132.46" y="102" font-size="14" fill="#000000" xml:space="preserve" style="white-space: pre" font-family="sans-serif">Discord API</text></g><g class="participant participant-tail" data-qualified-name="DiscordAPI" data-entity-uid="part7" id="part7-tail" data-source-line="9"><rect x="1125.46" y="610" width="87.91" height="30" rx="2.50" ry="2.50" fill="#E2E2F0" stroke="#181818" stroke-width="0.50"></rect><text x="1132.46" y="630" font-size="14" fill="#000000" xml:space="preserve" style="white-space: pre" font-family="sans-serif">Discord API</text></g><path d="M10,130 L418.12,130 L418.12,137 L408.12,147 L10,147 L10,130" fill="#EEEEEE" stroke="#000000" stroke-width="1.50"></path><rect x="10" y="130" width="882.85" height="191" fill="#00000000" stroke="#000000" stroke-width="1.50"></rect><text x="25" y="143" font-size="13" fill="#000000" xml:space="preserve" style="white-space: pre" font-weight="bold" font-family="sans-serif">Игровой процесс в реальном времени через WebSocket</text><g class="message" data-entity-1="part1" data-entity-2="part2" id="msg1" data-source-line="12"><polygon points="337.11,164 347.11,168 337.11,172 341.11,168" fill="#181818" stroke="#181818" stroke-width="1"></polygon><line x1="45.33" y1="168" x2="343.11" y2="168" stroke="#181818" stroke-width="1"></line><text x="52.33" y="163" font-size="13" fill="#000000" xml:space="preserve" style="white-space: pre" font-family="sans-serif">Игровые действия через WebSocket</text></g><g class="message" data-entity-1="part3" data-entity-2="part2" id="msg2" data-source-line="13"><polygon points="360.11,193 350.11,197 360.11,201 356.11,197" fill="#181818" stroke="#181818" stroke-width="1"></polygon><line x1="354.11" y1="197" x2="651.90" y2="197" stroke="#181818" stroke-width="1"></line><text x="366.11" y="192" font-size="13" fill="#000000" xml:space="preserve" style="white-space: pre" font-family="sans-serif">Игровые действия через WebSocket</text></g><g class="message" data-entity-1="part5" data-entity-2="part2" id="msg3" data-source-line="14"><polygon points="360.11,222 350.11,226 360.11,230 356.11,226" fill="#181818" stroke="#181818" stroke-width="1"></polygon><line x1="354.11" y1="226" x2="856.52" y2="226" stroke="#181818" stroke-width="1"></line><text x="366.11" y="221" font-size="13" fill="#000000" xml:space="preserve" style="white-space: pre" font-family="sans-serif">Игровые действия через WebSocket</text></g><g class="message" data-entity-1="part2" data-entity-2="part1" id="msg4" data-source-line="16"><polygon points="56.33,251 46.33,255 56.33,259 52.33,255" fill="#181818" stroke="#181818" stroke-width="1"></polygon><line x1="50.33" y1="255" x2="348.11" y2="255" stroke="#181818" stroke-width="1" stroke-dasharray="2,2"></line><text x="62.33" y="250" font-size="13" fill="#000000" xml:space="preserve" style="white-space: pre" font-family="sans-serif">Обновлённое состояние игры</text></g><g class="message" data-entity-1="part2" data-entity-2="part5" id="msg5" data-source-line="17"><polygon points="845.52,280 855.52,284 845.52,288 849.52,284" fill="#181818" stroke="#181818" stroke-width="1"></polygon><line x1="349.11" y1="284" x2="851.52" y2="284" stroke="#181818" stroke-width="1" stroke-dasharray="2,2"></line><text x="356.11" y="279" font-size="13" fill="#000000" xml:space="preserve" style="white-space: pre" font-family="sans-serif">Обновлённое состояние игры</text></g><g class="message" data-entity-1="part2" data-entity-2="part3" id="msg6" data-source-line="18"><polygon points="640.90,309 650.90,313 640.90,317 644.90,313" fill="#181818" stroke="#181818" stroke-width="1"></polygon><line x1="349.11" y1="313" x2="646.90" y2="313" stroke="#181818" stroke-width="1" stroke-dasharray="2,2"></line><text x="356.11" y="308" font-size="13" fill="#000000" xml:space="preserve" style="white-space: pre" font-family="sans-serif">Обновлённое состояние игры</text></g><g class="message" data-entity-1="part4" data-entity-2="part6" id="msg7" data-source-line="21"><polygon points="1056.40,345 1066.40,349 1056.40,353 1060.40,349" fill="#181818" stroke="#181818" stroke-width="1"></polygon><line x1="755.21" y1="349" x2="1062.40" y2="349" stroke="#181818" stroke-width="1"></line><text x="762.21" y="344" font-size="13" fill="#000000" xml:space="preserve" style="white-space: pre" font-family="sans-serif">setActivity(раунд, время)</text></g><g class="message" data-entity-1="part6" data-entity-2="part4" id="msg8" data-source-line="22"><polygon points="766.21,374 756.21,378 766.21,382 762.21,378" fill="#181818" stroke="#181818" stroke-width="1"></polygon><line x1="760.21" y1="378" x2="1067.40" y2="378" stroke="#181818" stroke-width="1"></line><text x="772.21" y="373" font-size="13" fill="#000000" xml:space="preserve" style="white-space: pre" font-family="sans-serif">ACTIVITY_INSTANCE_PARTICIPANTS_UPDATE</text></g><path d="M613,391 L613,416 L897,416 L897,401 L887,391 L613,391" fill="#FEFFDD" stroke="#181818" stroke-width="0.50"></path><path d="M887,391 L887,401 L897,401 L887,391" fill="#FEFFDD" stroke="#181818" stroke-width="0.50"></path><text x="619" y="408" font-size="13" fill="#000000" xml:space="preserve" style="white-space: pre" font-family="sans-serif">Если игрок выходит, игра ставится на паузу</text><path d="M288,426 L288,451 L408,451 L408,436 L398,426 L288,426" fill="#FEFFDD" stroke="#181818" stroke-width="0.50"></path><path d="M398,426 L398,436 L408,436 L398,426" fill="#FEFFDD" stroke="#181818" stroke-width="0.50"></path><text x="294" y="443" font-size="13" fill="#000000" xml:space="preserve" style="white-space: pre" font-family="sans-serif">Раунд завершён</text><g class="message" data-entity-1="part2" data-entity-2="part7" id="msg9" data-source-line="28"><polygon points="1157.42,473 1167.42,477 1157.42,481 1161.42,477" fill="#181818" stroke="#181818" stroke-width="1"></polygon><line x1="349.11" y1="477" x2="1163.42" y2="477" stroke="#181818" stroke-width="1"></line><text x="356.11" y="472" font-size="13" fill="#000000" xml:space="preserve" style="white-space: pre" font-family="sans-serif">POST /channels/{channel_id}/messages</text></g><g class="message" data-entity-1="part7" data-entity-2="part2" id="msg10" data-source-line="29"><polygon points="360.11,502 350.11,506 360.11,510 356.11,506" fill="#181818" stroke="#181818" stroke-width="1"></polygon><line x1="354.11" y1="506" x2="1168.42" y2="506" stroke="#181818" stroke-width="1" stroke-dasharray="2,2"></line><text x="366.11" y="501" font-size="13" fill="#000000" xml:space="preserve" style="white-space: pre" font-family="sans-serif">Сообщение отправлено</text></g><g class="message" data-entity-1="part2" data-entity-2="part1" id="msg11" data-source-line="31"><polygon points="56.33,531 46.33,535 56.33,539 52.33,535" fill="#181818" stroke="#181818" stroke-width="1"></polygon><line x1="50.33" y1="535" x2="348.11" y2="535" stroke="#181818" stroke-width="1" stroke-dasharray="2,2"></line><text x="62.33" y="530" font-size="13" fill="#000000" xml:space="preserve" style="white-space: pre" font-family="sans-serif">Результаты опубликованы в текстовом канале</text></g><g class="message" data-entity-1="part2" data-entity-2="part5" id="msg12" data-source-line="32"><polygon points="845.52,560 855.52,564 845.52,568 849.52,564" fill="#181818" stroke="#181818" stroke-width="1"></polygon><line x1="349.11" y1="564" x2="851.52" y2="564" stroke="#181818" stroke-width="1" stroke-dasharray="2,2"></line><text x="356.11" y="559" font-size="13" fill="#000000" xml:space="preserve" style="white-space: pre" font-family="sans-serif">Результаты опубликованы в текстовом канале</text></g><g class="message" data-entity-1="part2" data-entity-2="part3" id="msg13" data-source-line="33"><polygon points="640.90,589 650.90,593 640.90,597 644.90,593" fill="#181818" stroke="#181818" stroke-width="1"></polygon><line x1="349.11" y1="593" x2="646.90" y2="593" stroke="#181818" stroke-width="1" stroke-dasharray="2,2"></line><text x="356.11" y="588" font-size="13" fill="#000000" xml:space="preserve" style="white-space: pre" font-family="sans-serif">Результаты опубликованы в текстовом канале</text></g></g></svg>