<?xml version="1.0" encoding="UTF-8"?>
<!-- Do not edit this file with editors other than draw.io -->
<!DOCTYPE svg PUBLIC "-//W3C//DTD SVG 1.1//EN" "http://www.w3.org/Graphics/SVG/1.1/DTD/svg11.dtd">
<svg xmlns="http://www.w3.org/2000/svg" version="1.1" viewBox="0 0 1668 1455" width="1668" height="1455"><defs></defs><g><g class="title" data-source-line="1"><text x="719.01" y="23" font-size="14" fill="#000000" xml:space="preserve" style="white-space: pre" font-weight="bold" font-family="sans-serif">Интеграция CrossCrypt с Discord</text></g><g class="message" data-entity-1="part1" data-entity-2="part2" id="msg1" data-source-line="14"></g><g class="message" data-entity-1="part2" data-entity-2="part3" id="msg2" data-source-line="15"></g><g class="message" data-entity-1="part3" data-entity-2="part2" id="msg3" data-source-line="16"></g><g class="message" data-entity-1="part3" data-entity-2="part2" id="msg4" data-source-line="17"></g><g class="message" data-entity-1="part2" data-entity-2="part1" id="msg5" data-source-line="18"></g><g class="message" data-entity-1="part1" data-entity-2="part5" id="msg6" data-source-line="23"></g><g class="message" data-entity-1="part6" data-entity-2="part5" id="msg7" data-source-line="24"></g><g class="message" data-entity-1="part4" data-entity-2="part5" id="msg8" data-source-line="25"></g><g class="message" data-entity-1="part5" data-entity-2="part7" id="msg9" data-source-line="28"></g><g class="message" data-entity-1="part7" data-entity-2="part5" id="msg10" data-source-line="29"></g><g class="message" data-entity-1="part5" data-entity-2="part7" id="msg11" data-source-line="32"></g><g class="message" data-entity-1="part7" data-entity-2="part5" id="msg12" data-source-line="33"></g><g class="message" data-entity-1="part5" data-entity-2="part3" id="msg13" data-source-line="34"></g><g class="message" data-entity-1="part3" data-entity-2="part8" id="msg14" data-source-line="36"></g><g class="message" data-entity-1="part8" data-entity-2="part3" id="msg15" data-source-line="37"></g><g class="message" data-entity-1="part3" data-entity-2="part8" id="msg16" data-source-line="39"></g><g class="message" data-entity-1="part8" data-entity-2="part3" id="msg17" data-source-line="40"></g><g class="message" data-entity-1="part3" data-entity-2="part5" id="msg18" data-source-line="42"></g><g class="message" data-entity-1="part5" data-entity-2="part7" id="msg19" data-source-line="45"></g><g class="message" data-entity-1="part7" data-entity-2="part5" id="msg20" data-source-line="46"></g><g class="message" data-entity-1="part5" data-entity-2="part3" id="msg21" data-source-line="51"></g><g class="message" data-entity-1="part3" data-entity-2="part5" id="msg22" data-source-line="52"></g><rect x="10" y="898" width="1396.57" height="191" fill="#00000000" stroke="#000000" stroke-width="1.50"></rect><g class="message" data-entity-1="part1" data-entity-2="part3" id="msg23" data-source-line="56"></g><g class="message" data-entity-1="part4" data-entity-2="part3" id="msg24" data-source-line="57"></g><g class="message" data-entity-1="part6" data-entity-2="part3" id="msg25" data-source-line="58"></g><g class="message" data-entity-1="part3" data-entity-2="part1" id="msg26" data-source-line="60"></g><g class="message" data-entity-1="part3" data-entity-2="part6" id="msg27" data-source-line="61"></g><g class="message" data-entity-1="part3" data-entity-2="part4" id="msg28" data-source-line="62"></g><g class="message" data-entity-1="part5" data-entity-2="part7" id="msg29" data-source-line="66"></g><g class="message" data-entity-1="part7" data-entity-2="part5" id="msg30" data-source-line="67"></g><g class="message" data-entity-1="part3" data-entity-2="part8" id="msg31" data-source-line="74"></g><g class="message" data-entity-1="part8" data-entity-2="part3" id="msg32" data-source-line="75"></g><g class="message" data-entity-1="part3" data-entity-2="part1" id="msg33" data-source-line="77"></g><g class="message" data-entity-1="part3" data-entity-2="part6" id="msg34" data-source-line="78"></g><g class="message" data-entity-1="part3" data-entity-2="part4" id="msg35" data-source-line="79"></g><g class="participant-lifeline" data-qualified-name="Player1" data-entity-uid="part1" id="part1-lifeline" data-source-line="4"><g><title>.....1</title><rect x="41.33" y="113" width="8" height="1266" fill="#00000000" stroke="#00000000" stroke-width="0"></rect><line x1="45" y1="113" x2="45" y2="1379" stroke="#181818" stroke-width="0.50" stroke-dasharray="5,5"></line></g></g><g class="participant-lifeline" data-qualified-name="Discord" data-entity-uid="part2" id="part2-lifeline" data-source-line="5"><g><title>Discord</title><rect x="258.40" y="113" width="8" height="1266" fill="#00000000" stroke="#00000000" stroke-width="0"></rect><line x1="261.68" y1="113" x2="261.68" y2="1379" stroke="#181818" stroke-width="0.50" stroke-dasharray="5,5"></line></g></g><g class="participant-lifeline" data-qualified-name="Server" data-entity-uid="part3" id="part3-lifeline" data-source-line="6"><g><title>...... CrossCrypt</title><rect x="623.82" y="113" width="8" height="1266" fill="#00000000" stroke="#00000000" stroke-width="0"></rect><line x1="627.60" y1="113" x2="627.60" y2="1379" stroke="#181818" stroke-width="0.50" stroke-dasharray="5,5"></line></g></g><g class="participant-lifeline" data-qualified-name="Player3" data-entity-uid="part4" id="part4-lifeline" data-source-line="7"><g><title>.....3</title><rect x="927.60" y="113" width="8" height="1266" fill="#00000000" stroke="#00000000" stroke-width="0"></rect><line x1="931.28" y1="113" x2="931.28" y2="1379" stroke="#181818" stroke-width="0.50" stroke-dasharray="5,5"></line></g></g><g class="participant-lifeline" data-qualified-name="Client" data-entity-uid="part5" id="part5-lifeline" data-source-line="8"><g><title>...... CrossCrypt</title><rect x="1147.42" y="113" width="8" height="1266" fill="#00000000" stroke="#00000000" stroke-width="0"></rect><line x1="1150.44" y1="113" x2="1150.44" y2="1379" stroke="#181818" stroke-width="0.50" stroke-dasharray="5,5"></line></g></g><g class="participant-lifeline" data-qualified-name="Player2" data-entity-uid="part6" id="part6-lifeline" data-source-line="9"><g><title>.....2</title><rect x="1367.24" y="113" width="8" height="1266" fill="#00000000" stroke="#00000000" stroke-width="0"></rect><line x1="1370.92" y1="113" x2="1370.92" y2="1379" stroke="#181818" stroke-width="0.50" stroke-dasharray="5,5"></line></g></g><g class="participant-lifeline" data-qualified-name="SDK" data-entity-uid="part7" id="part7-lifeline" data-source-line="10"><g><title>Discord SDK</title><rect x="1513.58" y="113" width="8" height="1266" fill="#00000000" stroke="#00000000" stroke-width="0"></rect><line x1="1517.51" y1="113" x2="1517.51" y2="1379" stroke="#181818" stroke-width="0.50" stroke-dasharray="5,5"></line></g></g><g class="participant-lifeline" data-qualified-name="DiscordAPI" data-entity-uid="part8" id="part8-lifeline" data-source-line="11"><g><title>Discord API</title><rect x="1614.60" y="113" width="8" height="1266" fill="#00000000" stroke="#00000000" stroke-width="0"></rect><line x1="1617.65" y1="113" x2="1617.65" y2="1379" stroke="#181818" stroke-width="0.50" stroke-dasharray="5,5"></line></g></g><g class="participant participant-head" data-qualified-name="Player1" data-entity-uid="part1" id="part1-head" data-source-line="4"><text x="20" y="110" font-size="14" fill="#000000" xml:space="preserve" style="white-space: pre" font-family="sans-serif">Игрок1</text><circle cx="45.33" cy="45.50" r="8" fill="#E2E2F0" stroke="#181818" stroke-width="0.50"></circle><path d="M45.33,53.50 L45.33,80.50 M32.33,61.50 L58.33,61.50 M45.33,80.50 L32.33,95.50 M45.33,80.50 L58.33,95.50" fill="#00000000" stroke="#181818" stroke-width="0.50"></path></g><g class="participant participant-tail" data-qualified-name="Player1" data-entity-uid="part1" id="part1-tail" data-source-line="4"><text x="20" y="1391" font-size="14" fill="#000000" xml:space="preserve" style="white-space: pre" font-family="sans-serif">Игрок1</text><circle cx="45.33" cy="1402.50" r="8" fill="#E2E2F0" stroke="#181818" stroke-width="0.50"></circle><path d="M45.33,1410.50 L45.33,1437.50 M32.33,1418.50 L58.33,1418.50 M45.33,1437.50 L32.33,1452.50 M45.33,1437.50 L58.33,1452.50" fill="#00000000" stroke="#181818" stroke-width="0.50"></path></g><g class="participant participant-head" data-qualified-name="Discord" data-entity-uid="part2" id="part2-head" data-source-line="5"><rect x="231.68" y="82" width="61.46" height="30" rx="2.50" ry="2.50" fill="#E2E2F0" stroke="#181818" stroke-width="0.50"></rect><text x="238.68" y="102" font-size="14" fill="#000000" xml:space="preserve" style="white-space: pre" font-family="sans-serif">Discord</text></g><g class="participant participant-tail" data-qualified-name="Discord" data-entity-uid="part2" id="part2-tail" data-source-line="5"><rect x="231.68" y="1378" width="61.46" height="30" rx="2.50" ry="2.50" fill="#E2E2F0" stroke="#181818" stroke-width="0.50"></rect><text x="238.68" y="1398" font-size="14" fill="#000000" xml:space="preserve" style="white-space: pre" font-family="sans-serif">Discord</text></g><g class="participant participant-head" data-qualified-name="Server" data-entity-uid="part3" id="part3-head" data-source-line="6"><rect x="559.60" y="82" width="136.43" height="30" rx="2.50" ry="2.50" fill="#E2E2F0" stroke="#181818" stroke-width="0.50"></rect><text x="566.60" y="102" font-size="14" fill="#000000" xml:space="preserve" style="white-space: pre" font-family="sans-serif">Сервер CrossCrypt</text></g><g class="participant participant-tail" data-qualified-name="Server" data-entity-uid="part3" id="part3-tail" data-source-line="6"><rect x="559.60" y="1378" width="136.43" height="30" rx="2.50" ry="2.50" fill="#E2E2F0" stroke="#181818" stroke-width="0.50"></rect><text x="566.60" y="1398" font-size="14" fill="#000000" xml:space="preserve" style="white-space: pre" font-family="sans-serif">Сервер CrossCrypt</text></g><g class="participant participant-head" data-qualified-name="Player3" data-entity-uid="part4" id="part4-head" data-source-line="7"><text x="906.28" y="110" font-size="14" fill="#000000" xml:space="preserve" style="white-space: pre" font-family="sans-serif">Игрок3</text><circle cx="931.60" cy="45.50" r="8" fill="#E2E2F0" stroke="#181818" stroke-width="0.50"></circle><path d="M931.60,53.50 L931.60,80.50 M918.60,61.50 L944.60,61.50 M931.60,80.50 L918.60,95.50 M931.60,80.50 L944.60,95.50" fill="#00000000" stroke="#181818" stroke-width="0.50"></path></g><g class="participant participant-tail" data-qualified-name="Player3" data-entity-uid="part4" id="part4-tail" data-source-line="7"><text x="906.28" y="1391" font-size="14" fill="#000000" xml:space="preserve" style="white-space: pre" font-family="sans-serif">Игрок3</text><circle cx="931.60" cy="1402.50" r="8" fill="#E2E2F0" stroke="#181818" stroke-width="0.50"></circle><path d="M931.60,1410.50 L931.60,1437.50 M918.60,1418.50 L944.60,1418.50 M931.60,1437.50 L918.60,1452.50 M931.60,1437.50 L944.60,1452.50" fill="#00000000" stroke="#181818" stroke-width="0.50"></path></g><g class="participant participant-head" data-qualified-name="Client" data-entity-uid="part5" id="part5-head" data-source-line="8"><rect x="1084.44" y="82" width="133.97" height="30" rx="2.50" ry="2.50" fill="#E2E2F0" stroke="#181818" stroke-width="0.50"></rect><text x="1091.44" y="102" font-size="14" fill="#000000" xml:space="preserve" style="white-space: pre" font-family="sans-serif">Клиент CrossCrypt</text></g><g class="participant participant-tail" data-qualified-name="Client" data-entity-uid="part5" id="part5-tail" data-source-line="8"><rect x="1084.44" y="1378" width="133.97" height="30" rx="2.50" ry="2.50" fill="#E2E2F0" stroke="#181818" stroke-width="0.50"></rect><text x="1091.44" y="1398" font-size="14" fill="#000000" xml:space="preserve" style="white-space: pre" font-family="sans-serif">Клиент CrossCrypt</text></g><g class="participant participant-head" data-qualified-name="Player2" data-entity-uid="part6" id="part6-head" data-source-line="9"><text x="1345.92" y="110" font-size="14" fill="#000000" xml:space="preserve" style="white-space: pre" font-family="sans-serif">Игрок2</text><circle cx="1371.24" cy="45.50" r="8" fill="#E2E2F0" stroke="#181818" stroke-width="0.50"></circle><path d="M1371.24,53.50 L1371.24,80.50 M1358.24,61.50 L1384.24,61.50 M1371.24,80.50 L1358.24,95.50 M1371.24,80.50 L1384.24,95.50" fill="#00000000" stroke="#181818" stroke-width="0.50"></path></g><g class="participant participant-tail" data-qualified-name="Player2" data-entity-uid="part6" id="part6-tail" data-source-line="9"><text x="1345.92" y="1391" font-size="14" fill="#000000" xml:space="preserve" style="white-space: pre" font-family="sans-serif">Игрок2</text><circle cx="1371.24" cy="1402.50" r="8" fill="#E2E2F0" stroke="#181818" stroke-width="0.50"></circle><path d="M1371.24,1410.50 L1371.24,1437.50 M1358.24,1418.50 L1384.24,1418.50 M1371.24,1437.50 L1358.24,1452.50 M1371.24,1437.50 L1384.24,1452.50" fill="#00000000" stroke="#181818" stroke-width="0.50"></path></g><g class="participant participant-head" data-qualified-name="SDK" data-entity-uid="part7" id="part7-head" data-source-line="10"><rect x="1470.51" y="82" width="94.13" height="30" rx="2.50" ry="2.50" fill="#E2E2F0" stroke="#181818" stroke-width="0.50"></rect><text x="1477.51" y="102" font-size="14" fill="#000000" xml:space="preserve" style="white-space: pre" font-family="sans-serif">Discord SDK</text></g><g class="participant participant-tail" data-qualified-name="SDK" data-entity-uid="part7" id="part7-tail" data-source-line="10"><rect x="1470.51" y="1378" width="94.13" height="30" rx="2.50" ry="2.50" fill="#E2E2F0" stroke="#181818" stroke-width="0.50"></rect><text x="1477.51" y="1398" font-size="14" fill="#000000" xml:space="preserve" style="white-space: pre" font-family="sans-serif">Discord SDK</text></g><g class="participant participant-head" data-qualified-name="DiscordAPI" data-entity-uid="part8" id="part8-head" data-source-line="11"><rect x="1574.65" y="82" width="87.91" height="30" rx="2.50" ry="2.50" fill="#E2E2F0" stroke="#181818" stroke-width="0.50"></rect><text x="1581.65" y="102" font-size="14" fill="#000000" xml:space="preserve" style="white-space: pre" font-family="sans-serif">Discord API</text></g><g class="participant participant-tail" data-qualified-name="DiscordAPI" data-entity-uid="part8" id="part8-tail" data-source-line="11"><rect x="1574.65" y="1378" width="87.91" height="30" rx="2.50" ry="2.50" fill="#E2E2F0" stroke="#181818" stroke-width="0.50"></rect><text x="1581.65" y="1398" font-size="14" fill="#000000" xml:space="preserve" style="white-space: pre" font-family="sans-serif">Discord API</text></g><g class="message" data-entity-1="part1" data-entity-2="part2" id="msg1" data-source-line="14"><polygon points="250.40,140 260.40,144 250.40,148 254.40,144" fill="#181818" stroke="#181818" stroke-width="1"></polygon><line x1="45.33" y1="144" x2="256.40" y2="144" stroke="#181818" stroke-width="1"></line><text x="52.33" y="139" font-size="13" fill="#000000" xml:space="preserve" style="white-space: pre" font-family="sans-serif">/crosscrypt difficulty=(сложность)</text></g><g class="message" data-entity-1="part2" data-entity-2="part3" id="msg2" data-source-line="15"><polygon points="615.82,169 625.82,173 615.82,177 619.82,173" fill="#181818" stroke="#181818" stroke-width="1"></polygon><line x1="262.40" y1="173" x2="621.82" y2="173" stroke="#181818" stroke-width="1"></line><text x="269.40" y="168" font-size="13" fill="#000000" xml:space="preserve" style="white-space: pre" font-family="sans-serif">Вебхук взаимодействия</text></g><g class="message" data-entity-1="part3" data-entity-2="part2" id="msg3" data-source-line="16"><polygon points="273.40,198 263.40,202 273.40,206 269.40,202" fill="#181818" stroke="#181818" stroke-width="1"></polygon><line x1="267.40" y1="202" x2="626.82" y2="202" stroke="#181818" stroke-width="1"></line><text x="279.40" y="197" font-size="13" fill="#000000" xml:space="preserve" style="white-space: pre" font-family="sans-serif">Создание экземпляра Activity (встроенного приложения)</text></g><g class="message" data-entity-1="part3" data-entity-2="part2" id="msg4" data-source-line="17"><polygon points="273.40,227 263.40,231 273.40,235 269.40,231" fill="#181818" stroke="#181818" stroke-width="1"></polygon><line x1="267.40" y1="231" x2="626.82" y2="231" stroke="#181818" stroke-width="1"></line><text x="279.40" y="226" font-size="13" fill="#000000" xml:space="preserve" style="white-space: pre" font-family="sans-serif">Ссылка-приглашение в Activity</text></g><g class="message" data-entity-1="part2" data-entity-2="part1" id="msg5" data-source-line="18"><polygon points="56.33,256 46.33,260 56.33,264 52.33,260" fill="#181818" stroke="#181818" stroke-width="1"></polygon><line x1="50.33" y1="260" x2="261.40" y2="260" stroke="#181818" stroke-width="1"></line><text x="62.33" y="255" font-size="13" fill="#000000" xml:space="preserve" style="white-space: pre" font-family="sans-serif">Открыть Activity CrossCrypt</text></g><path d="M22,273 L22,298 L953,298 L953,283 L943,273 L22,273" fill="#FEFFDD" stroke="#181818" stroke-width="0.50"></path><path d="M943,273 L943,283 L953,283 L943,273" fill="#FEFFDD" stroke="#181818" stroke-width="0.50"></path><text x="335.01" y="290" font-size="13" fill="#000000" xml:space="preserve" style="white-space: pre" font-family="sans-serif">Каждый игрок присоединяется к Activity в Discord</text><g class="message" data-entity-1="part1" data-entity-2="part5" id="msg6" data-source-line="23"><polygon points="1139.42,320 1149.42,324 1139.42,328 1143.42,324" fill="#181818" stroke="#181818" stroke-width="1"></polygon><line x1="45.33" y1="324" x2="1145.42" y2="324" stroke="#181818" stroke-width="1"></line><text x="52.33" y="319" font-size="13" fill="#000000" xml:space="preserve" style="white-space: pre" font-family="sans-serif">Запуск встроенного приложения</text></g><g class="message" data-entity-1="part6" data-entity-2="part5" id="msg7" data-source-line="24"><polygon points="1162.42,349 1152.42,353 1162.42,357 1158.42,353" fill="#181818" stroke="#181818" stroke-width="1"></polygon><line x1="1156.42" y1="353" x2="1370.24" y2="353" stroke="#181818" stroke-width="1"></line><text x="1168.42" y="348" font-size="13" fill="#000000" xml:space="preserve" style="white-space: pre" font-family="sans-serif">Запуск встроенного приложения</text></g><g class="message" data-entity-1="part4" data-entity-2="part5" id="msg8" data-source-line="25"><polygon points="1139.42,378 1149.42,382 1139.42,386 1143.42,382" fill="#181818" stroke="#181818" stroke-width="1"></polygon><line x1="931.60" y1="382" x2="1145.42" y2="382" stroke="#181818" stroke-width="1"></line><text x="938.60" y="377" font-size="13" fill="#000000" xml:space="preserve" style="white-space: pre" font-family="sans-serif">Запуск встроенного приложения</text></g><g class="message" data-entity-1="part5" data-entity-2="part7" id="msg9" data-source-line="28"><polygon points="1505.58,422 1515.58,426 1505.58,430 1509.58,426" fill="#181818" stroke="#181818" stroke-width="1"></polygon><line x1="1151.42" y1="426" x2="1511.58" y2="426" stroke="#181818" stroke-width="1"></line><text x="1158.42" y="406" font-size="13" fill="#000000" xml:space="preserve" style="white-space: pre" font-family="sans-serif">ожидание готовности Discord SDK</text><text x="1158.42" y="421" font-size="13" fill="#000000" xml:space="preserve" style="white-space: pre" font-family="sans-serif">ready()</text></g><g class="message" data-entity-1="part7" data-entity-2="part5" id="msg10" data-source-line="29"><polygon points="1162.42,451 1152.42,455 1162.42,459 1158.42,455" fill="#181818" stroke="#181818" stroke-width="1"></polygon><line x1="1156.42" y1="455" x2="1516.58" y2="455" stroke="#181818" stroke-width="1" stroke-dasharray="2,2"></line><text x="1168.42" y="450" font-size="13" fill="#000000" xml:space="preserve" style="white-space: pre" font-family="sans-serif">SDK инициализирован</text></g><g class="message" data-entity-1="part5" data-entity-2="part7" id="msg11" data-source-line="32"><polygon points="1505.58,480 1515.58,484 1505.58,488 1509.58,484" fill="#181818" stroke="#181818" stroke-width="1"></polygon><line x1="1151.42" y1="484" x2="1511.58" y2="484" stroke="#181818" stroke-width="1"></line><text x="1158.42" y="479" font-size="13" fill="#000000" xml:space="preserve" style="white-space: pre" font-family="sans-serif">Запрос授权ации пользователя</text></g><g class="message" data-entity-1="part7" data-entity-2="part5" id="msg12" data-source-line="33"><polygon points="1162.42,509 1152.42,513 1162.42,517 1158.42,513" fill="#181818" stroke="#181818" stroke-width="1"></polygon><line x1="1156.42" y1="513" x2="1516.58" y2="513" stroke="#181818" stroke-width="1" stroke-dasharray="2,2"></line><text x="1168.42" y="508" font-size="13" fill="#000000" xml:space="preserve" style="white-space: pre" font-family="sans-serif">Код авторизации</text></g><g class="message" data-entity-1="part5" data-entity-2="part3" id="msg13" data-source-line="34"><polygon points="638.82,538 628.82,542 638.82,546 634.82,542" fill="#181818" stroke="#181818" stroke-width="1"></polygon><line x1="632.82" y1="542" x2="1150.42" y2="542" stroke="#181818" stroke-width="1"></line><text x="644.82" y="537" font-size="13" fill="#000000" xml:space="preserve" style="white-space: pre" font-family="sans-serif">Передача кода авторизации</text></g><g class="message" data-entity-1="part3" data-entity-2="part8" id="msg14" data-source-line="36"><polygon points="1606.60,567 1616.60,571 1606.60,575 1610.60,571" fill="#181818" stroke="#181818" stroke-width="1"></polygon><line x1="627.82" y1="571" x2="1612.60" y2="571" stroke="#181818" stroke-width="1"></line><text x="634.82" y="566" font-size="13" fill="#000000" xml:space="preserve" style="white-space: pre" font-family="sans-serif">POST /oauth2/token</text></g><g class="message" data-entity-1="part8" data-entity-2="part3" id="msg15" data-source-line="37"><polygon points="638.82,611 628.82,615 638.82,619 634.82,615" fill="#181818" stroke="#181818" stroke-width="1"></polygon><line x1="632.82" y1="615" x2="1617.60" y2="615" stroke="#181818" stroke-width="1" stroke-dasharray="2,2"></line><text x="644.82" y="595" font-size="13" fill="#000000" xml:space="preserve" style="white-space: pre" font-family="sans-serif">access_token |</text><text x="644.82" y="610" font-size="13" fill="#000000" xml:space="preserve" style="white-space: pre" font-family="sans-serif">время жизни = 604800 сек = 7 дней</text></g><g class="message" data-entity-1="part3" data-entity-2="part8" id="msg16" data-source-line="39"><polygon points="1606.60,640 1616.60,644 1606.60,648 1610.60,644" fill="#181818" stroke="#181818" stroke-width="1"></polygon><line x1="627.82" y1="644" x2="1612.60" y2="644" stroke="#181818" stroke-width="1"></line><text x="634.82" y="639" font-size="13" fill="#000000" xml:space="preserve" style="white-space: pre" font-family="sans-serif">GET /users/@me</text></g><g class="message" data-entity-1="part8" data-entity-2="part3" id="msg17" data-source-line="40"><polygon points="638.82,669 628.82,673 638.82,677 634.82,673" fill="#181818" stroke="#181818" stroke-width="1"></polygon><line x1="632.82" y1="673" x2="1617.60" y2="673" stroke="#181818" stroke-width="1" stroke-dasharray="2,2"></line><text x="644.82" y="668" font-size="13" fill="#000000" xml:space="preserve" style="white-space: pre" font-family="sans-serif">Профиль пользователя</text></g><g class="message" data-entity-1="part3" data-entity-2="part5" id="msg18" data-source-line="42"><polygon points="1139.42,698 1149.42,702 1139.42,706 1143.42,702" fill="#181818" stroke="#181818" stroke-width="1"></polygon><line x1="627.82" y1="702" x2="1145.42" y2="702" stroke="#181818" stroke-width="1" stroke-dasharray="2,2"></line><text x="634.82" y="697" font-size="13" fill="#000000" xml:space="preserve" style="white-space: pre" font-family="sans-serif">Информация о пользователе</text></g><g class="message" data-entity-1="part5" data-entity-2="part7" id="msg19" data-source-line="45"><polygon points="1505.58,742 1515.58,746 1505.58,750 1509.58,746" fill="#181818" stroke="#181818" stroke-width="1"></polygon><line x1="1151.42" y1="746" x2="1511.58" y2="746" stroke="#181818" stroke-width="1"></line><text x="1158.42" y="726" font-size="13" fill="#000000" xml:space="preserve" style="white-space: pre" font-family="sans-serif">получить список пользователей, подключенных к Activity</text><text x="1158.42" y="741" font-size="13" fill="#000000" xml:space="preserve" style="white-space: pre" font-family="sans-serif">getInstanceConnectedParticipants()</text></g><g class="message" data-entity-1="part7" data-entity-2="part5" id="msg20" data-source-line="46"><polygon points="1162.42,771 1152.42,775 1162.42,779 1158.42,775" fill="#181818" stroke="#181818" stroke-width="1"></polygon><line x1="1156.42" y1="775" x2="1516.58" y2="775" stroke="#181818" stroke-width="1" stroke-dasharray="2,2"></line><text x="1168.42" y="770" font-size="13" fill="#000000" xml:space="preserve" style="white-space: pre" font-family="sans-serif">participants[3]</text></g><path d="M1013,788 L1013,813 L1289,813 L1289,798 L1279,788 L1013,788" fill="#FEFFDD" stroke="#181818" stroke-width="0.50"></path><path d="M1279,788 L1279,798 L1289,798 L1279,788" fill="#FEFFDD" stroke="#181818" stroke-width="0.50"></path><text x="1019" y="805" font-size="13" fill="#000000" xml:space="preserve" style="white-space: pre" font-family="sans-serif">Проверка, что подключено ровно 3 игрока</text><g class="message" data-entity-1="part5" data-entity-2="part3" id="msg21" data-source-line="51"><polygon points="638.82,835 628.82,839 638.82,843 634.82,839" fill="#181818" stroke="#181818" stroke-width="1"></polygon><line x1="632.82" y1="839" x2="1150.42" y2="839" stroke="#181818" stroke-width="1"></line><text x="644.82" y="834" font-size="13" fill="#000000" xml:space="preserve" style="white-space: pre" font-family="sans-serif">Начать игровую сессию</text></g><g class="message" data-entity-1="part3" data-entity-2="part5" id="msg22" data-source-line="52"><polygon points="1139.42,879 1149.42,883 1139.42,887 1143.42,883" fill="#181818" stroke="#181818" stroke-width="1"></polygon><line x1="627.82" y1="883" x2="1145.42" y2="883" stroke="#181818" stroke-width="1" stroke-dasharray="2,2"></line><text x="634.82" y="863" font-size="13" fill="#000000" xml:space="preserve" style="white-space: pre" font-family="sans-serif">Назначенные роли</text><text x="634.82" y="878" font-size="13" fill="#000000" xml:space="preserve" style="white-space: pre" font-family="sans-serif">(Хакер, Аналитик, Криптограф)</text></g><path d="M10,898 L418.12,898 L418.12,905 L408.12,915 L10,915 L10,898" fill="#EEEEEE" stroke="#000000" stroke-width="1.50"></path><rect x="10" y="898" width="1396.57" height="191" fill="#00000000" stroke="#000000" stroke-width="1.50"></rect><text x="25" y="911" font-size="13" fill="#000000" xml:space="preserve" style="white-space: pre" font-weight="bold" font-family="sans-serif">Игровой процесс в реальном времени через WebSocket</text><g class="message" data-entity-1="part1" data-entity-2="part3" id="msg23" data-source-line="56"><polygon points="615.82,932 625.82,936 615.82,940 619.82,936" fill="#181818" stroke="#181818" stroke-width="1"></polygon><line x1="45.33" y1="936" x2="621.82" y2="936" stroke="#181818" stroke-width="1"></line><text x="52.33" y="931" font-size="13" fill="#000000" xml:space="preserve" style="white-space: pre" font-family="sans-serif">Игровые действия через WebSocket</text></g><g class="message" data-entity-1="part4" data-entity-2="part3" id="msg24" data-source-line="57"><polygon points="638.82,961 628.82,965 638.82,969 634.82,965" fill="#181818" stroke="#181818" stroke-width="1"></polygon><line x1="632.82" y1="965" x2="930.60" y2="965" stroke="#181818" stroke-width="1"></line><text x="644.82" y="960" font-size="13" fill="#000000" xml:space="preserve" style="white-space: pre" font-family="sans-serif">Игровые действия через WebSocket</text></g><g class="message" data-entity-1="part6" data-entity-2="part3" id="msg25" data-source-line="58"><polygon points="638.82,990 628.82,994 638.82,998 634.82,994" fill="#181818" stroke="#181818" stroke-width="1"></polygon><line x1="632.82" y1="994" x2="1370.24" y2="994" stroke="#181818" stroke-width="1"></line><text x="644.82" y="989" font-size="13" fill="#000000" xml:space="preserve" style="white-space: pre" font-family="sans-serif">Игровые действия через WebSocket</text></g><g class="message" data-entity-1="part3" data-entity-2="part1" id="msg26" data-source-line="60"><polygon points="56.33,1019 46.33,1023 56.33,1027 52.33,1023" fill="#181818" stroke="#181818" stroke-width="1"></polygon><line x1="50.33" y1="1023" x2="626.82" y2="1023" stroke="#181818" stroke-width="1" stroke-dasharray="2,2"></line><text x="62.33" y="1018" font-size="13" fill="#000000" xml:space="preserve" style="white-space: pre" font-family="sans-serif">Обновлённое состояние игры</text></g><g class="message" data-entity-1="part3" data-entity-2="part6" id="msg27" data-source-line="61"><polygon points="1359.24,1048 1369.24,1052 1359.24,1056 1363.24,1052" fill="#181818" stroke="#181818" stroke-width="1"></polygon><line x1="627.82" y1="1052" x2="1365.24" y2="1052" stroke="#181818" stroke-width="1" stroke-dasharray="2,2"></line><text x="634.82" y="1047" font-size="13" fill="#000000" xml:space="preserve" style="white-space: pre" font-family="sans-serif">Обновлённое состояние игры</text></g><g class="message" data-entity-1="part3" data-entity-2="part4" id="msg28" data-source-line="62"><polygon points="919.60,1077 929.60,1081 919.60,1085 923.60,1081" fill="#181818" stroke="#181818" stroke-width="1"></polygon><line x1="627.82" y1="1081" x2="925.60" y2="1081" stroke="#181818" stroke-width="1" stroke-dasharray="2,2"></line><text x="634.82" y="1076" font-size="13" fill="#000000" xml:space="preserve" style="white-space: pre" font-family="sans-serif">Обновлённое состояние игры</text></g><g class="message" data-entity-1="part5" data-entity-2="part7" id="msg29" data-source-line="66"><polygon points="1505.58,1113 1515.58,1117 1505.58,1121 1509.58,1117" fill="#181818" stroke="#181818" stroke-width="1"></polygon><line x1="1151.42" y1="1117" x2="1511.58" y2="1117" stroke="#181818" stroke-width="1"></line><text x="1158.42" y="1112" font-size="13" fill="#000000" xml:space="preserve" style="white-space: pre" font-family="sans-serif">setActivity(раунд, время)</text></g><g class="message" data-entity-1="part7" data-entity-2="part5" id="msg30" data-source-line="67"><polygon points="1162.42,1142 1152.42,1146 1162.42,1150 1158.42,1146" fill="#181818" stroke="#181818" stroke-width="1"></polygon><line x1="1156.42" y1="1146" x2="1516.58" y2="1146" stroke="#181818" stroke-width="1"></line><text x="1168.42" y="1141" font-size="13" fill="#000000" xml:space="preserve" style="white-space: pre" font-family="sans-serif">ACTIVITY_INSTANCE_PARTICIPANTS_UPDATE</text></g><path d="M1009,1159 L1009,1184 L1293,1184 L1293,1169 L1283,1159 L1009,1159" fill="#FEFFDD" stroke="#181818" stroke-width="0.50"></path><path d="M1283,1159 L1283,1169 L1293,1169 L1283,1159" fill="#FEFFDD" stroke="#181818" stroke-width="0.50"></path><text x="1015" y="1176" font-size="13" fill="#000000" xml:space="preserve" style="white-space: pre" font-family="sans-serif">Если игрок выходит, игра ставится на паузу</text><path d="M567,1194 L567,1219 L687,1219 L687,1204 L677,1194 L567,1194" fill="#FEFFDD" stroke="#181818" stroke-width="0.50"></path><path d="M677,1194 L677,1204 L687,1204 L677,1194" fill="#FEFFDD" stroke="#181818" stroke-width="0.50"></path><text x="573" y="1211" font-size="13" fill="#000000" xml:space="preserve" style="white-space: pre" font-family="sans-serif">Раунд завершён</text><g class="message" data-entity-1="part3" data-entity-2="part8" id="msg31" data-source-line="74"><polygon points="1606.60,1241 1616.60,1245 1606.60,1249 1610.60,1245" fill="#181818" stroke="#181818" stroke-width="1"></polygon><line x1="627.82" y1="1245" x2="1612.60" y2="1245" stroke="#181818" stroke-width="1"></line><text x="634.82" y="1240" font-size="13" fill="#000000" xml:space="preserve" style="white-space: pre" font-family="sans-serif">POST /channels/{channel_id}/messages</text></g><g class="message" data-entity-1="part8" data-entity-2="part3" id="msg32" data-source-line="75"><polygon points="638.82,1270 628.82,1274 638.82,1278 634.82,1274" fill="#181818" stroke="#181818" stroke-width="1"></polygon><line x1="632.82" y1="1274" x2="1617.60" y2="1274" stroke="#181818" stroke-width="1" stroke-dasharray="2,2"></line><text x="644.82" y="1269" font-size="13" fill="#000000" xml:space="preserve" style="white-space: pre" font-family="sans-serif">Сообщение отправлено</text></g><g class="message" data-entity-1="part3" data-entity-2="part1" id="msg33" data-source-line="77"><polygon points="56.33,1299 46.33,1303 56.33,1307 52.33,1303" fill="#181818" stroke="#181818" stroke-width="1"></polygon><line x1="50.33" y1="1303" x2="626.82" y2="1303" stroke="#181818" stroke-width="1" stroke-dasharray="2,2"></line><text x="62.33" y="1298" font-size="13" fill="#000000" xml:space="preserve" style="white-space: pre" font-family="sans-serif">Результаты опубликованы в текстовом канале</text></g><g class="message" data-entity-1="part3" data-entity-2="part6" id="msg34" data-source-line="78"><polygon points="1359.24,1328 1369.24,1332 1359.24,1336 1363.24,1332" fill="#181818" stroke="#181818" stroke-width="1"></polygon><line x1="627.82" y1="1332" x2="1365.24" y2="1332" stroke="#181818" stroke-width="1" stroke-dasharray="2,2"></line><text x="634.82" y="1327" font-size="13" fill="#000000" xml:space="preserve" style="white-space: pre" font-family="sans-serif">Результаты опубликованы в текстовом канале</text></g><g class="message" data-entity-1="part3" data-entity-2="part4" id="msg35" data-source-line="79"><polygon points="919.60,1357 929.60,1361 919.60,1365 923.60,1361" fill="#181818" stroke="#181818" stroke-width="1"></polygon><line x1="627.82" y1="1361" x2="925.60" y2="1361" stroke="#181818" stroke-width="1" stroke-dasharray="2,2"></line><text x="634.82" y="1356" font-size="13" fill="#000000" xml:space="preserve" style="white-space: pre" font-family="sans-serif">Результаты опубликованы в текстовом канале</text></g></g></svg>