<?xml version="1.0" encoding="UTF-8"?>
<!-- Do not edit this file with editors other than draw.io -->
<!DOCTYPE svg PUBLIC "-//W3C//DTD SVG 1.1//EN" "http://www.w3.org/Graphics/SVG/1.1/DTD/svg11.dtd">
<svg xmlns="http://www.w3.org/2000/svg" version="1.1" viewBox="0 0 630 400" width="630" height="400"><defs></defs><g><g class="cluster" data-qualified-name="...-.... CrossCrypt . ........" id="ent0009" data-source-line="22">
<rect x="228.45" y="7" width="288.87" height="385" fill="#00000000" stroke="#181818" stroke-width="1"></rect>
<text x="257.27" y="22" font-size="14" fill="#000000" xml:space="preserve" style="white-space: pre" font-weight="bold" font-family="sans-serif">Веб-игра CrossCrypt — Геймплей</text></g>
<g class="entity" data-qualified-name="...-.... CrossCrypt . .........UC3" id="ent0010" data-source-line="23"><ellipse cx="372.88" cy="69.00" rx="124.68" ry="27.34" fill="#FFF2CC" stroke="#D6B656" stroke-width="0.50"></ellipse><text x="273.29" y="67.51" font-size="14" fill="#000000" xml:space="preserve" style="white-space: pre" font-family="sans-serif">UC-3: Получение информации</text><text x="291.08" y="83.51" font-size="14" fill="#000000" xml:space="preserve" style="white-space: pre" font-family="sans-serif">для решения кроссворда</text></g><g class="entity" data-qualified-name="...-.... CrossCrypt . .........UC4" id="ent0011" data-source-line="24"><ellipse cx="372.88" cy="158.00" rx="121.25" ry="26.65" fill="#FFF2CC" stroke="#D6B656" stroke-width="0.50"></ellipse><text x="287.65" y="154.11" font-size="14" fill="#000000" xml:space="preserve" style="white-space: pre" font-family="sans-serif">UC-4: Шифрование букв и</text><text x="284.03" y="170.11" font-size="14" fill="#000000" xml:space="preserve" style="white-space: pre" font-family="sans-serif">передача символов Хакеру</text></g><g class="entity" data-qualified-name="...-.... CrossCrypt . .........UC5" id="ent0012" data-source-line="25"><ellipse cx="372.88" cy="348.00" rx="128.43" ry="28.09" fill="#FFF2CC" stroke="#D6B656" stroke-width="0.50"></ellipse><text x="274.46" y="344.94" font-size="14" fill="#000000" xml:space="preserve" style="white-space: pre" font-family="sans-serif">UC-5: Заполнение кроссворда</text><text x="278.17" y="360.94" font-size="14" fill="#000000" xml:space="preserve" style="white-space: pre" font-family="sans-serif">и контроль игрового таймера</text></g><g class="entity" data-qualified-name="...-.... CrossCrypt . .........CheckWord" id="ent0013" data-source-line="26"><ellipse cx="372.88" cy="244.00" rx="111.78" ry="24.76" fill="#FFF2CC" stroke="#D6B656" stroke-width="0.50"></ellipse><text x="271.72" y="248.50" font-size="14" fill="#000000" xml:space="preserve" style="white-space: pre" font-family="sans-serif">Проверить корректность слова</text></g><g class="entity" data-qualified-name="Player" id="ent0001" data-source-line="11"><circle cx="24.43" cy="139.50" r="8" fill="#F1F1F1" stroke="#181818" stroke-width="0.50"></circle><path d="M24.43,147.50 L24.43,174.50 M11.43,155.50 L37.43,155.50 M24.43,174.50 L11.43,189.50 M24.43,174.50 L37.43,189.50" fill="#00000000" stroke="#181818" stroke-width="0.50"></path><text x="6" y="204" font-size="14" fill="#000000" xml:space="preserve" style="white-space: pre" font-family="sans-serif">Игрок</text></g><g class="entity" data-qualified-name="Analyst" id="ent0002" data-source-line="12"><circle cx="142.66" cy="28.50" r="8" fill="#F1F1F1" stroke="#181818" stroke-width="0.50"></circle><path d="M142.66,36.50 L142.66,63.50 M129.66,44.50 L155.66,44.50 M142.66,63.50 L129.66,78.50 M142.66,63.50 L155.66,78.50" fill="#00000000" stroke="#181818" stroke-width="0.50"></path><text x="112.06" y="93" font-size="14" fill="#000000" xml:space="preserve" style="white-space: pre" font-family="sans-serif">Аналитик</text></g><g class="entity" data-qualified-name="Cryptographer" id="ent0003" data-source-line="13"><circle cx="142.66" cy="139.50" r="8" fill="#F1F1F1" stroke="#181818" stroke-width="0.50"></circle><path d="M142.66,147.50 L142.66,174.50 M129.66,155.50 L155.66,155.50 M142.66,174.50 L129.66,189.50 M142.66,174.50 L155.66,189.50" fill="#00000000" stroke="#181818" stroke-width="0.50"></path><text x="103.87" y="204" font-size="14" fill="#000000" xml:space="preserve" style="white-space: pre" font-family="sans-serif">Криптограф</text></g><g class="entity" data-qualified-name="Hacker" id="ent0004" data-source-line="14"><circle cx="142.66" cy="250.50" r="8" fill="#F1F1F1" stroke="#181818" stroke-width="0.50"></circle><path d="M142.66,258.50 L142.66,285.50 M129.66,266.50 L155.66,266.50 M142.66,285.50 L129.66,300.50 M142.66,285.50 L155.66,300.50" fill="#00000000" stroke="#181818" stroke-width="0.50"></path><text x="123.17" y="315" font-size="14" fill="#000000" xml:space="preserve" style="white-space: pre" font-family="sans-serif">Хакер</text></g><g class="entity" data-qualified-name="System" id="ent0005" data-source-line="15"><circle cx="592.51" cy="128.50" r="8" fill="#F1F1F1" stroke="#181818" stroke-width="0.50"></circle><path d="M592.51,136.50 L592.51,163.50 M579.51,144.50 L605.51,144.50 M592.51,163.50 L579.51,178.50 M592.51,163.50 L605.51,178.50" fill="#00000000" stroke="#181818" stroke-width="0.50"></path><text x="564.32" y="193" font-size="14" fill="#000000" xml:space="preserve" style="white-space: pre" font-family="sans-serif">Система</text></g><g class="link" data-entity-1="ent0001" data-entity-2="ent0002" id="lnk6" data-source-line="18" data-link-type="extension"><path d="M56.3576,139.4685 C74.5676,122.0785 90.09,107.25 111.74,86.57" fill="none" stroke="#333333" stroke-width="1"></path><polygon points="43.34,151.90 60.50,143.81 52.21,135.13 43.34,151.90" fill="#00000000" stroke="#333333" stroke-width="1"></polygon></g><g class="link" data-entity-1="ent0001" data-entity-2="ent0003" id="lnk7" data-source-line="19" data-link-type="extension"><path d="M61.34,169 C77.38,169 83.45,169 103.76,169" fill="none" stroke="#333333" stroke-width="1"></path><polygon points="43.34,169 61.34,175 61.34,163 43.34,169" fill="#00000000" stroke="#333333" stroke-width="1"></polygon></g><g class="link" data-entity-1="ent0001" data-entity-2="ent0004" id="lnk8" data-source-line="20" data-link-type="extension"><path d="M56.3549,198.5343 C77.8749,219.0943 100.81,240.99 122.77,261.96" fill="none" stroke="#333333" stroke-width="1"></path><polygon points="43.34,186.10 52.21,202.87 60.50,194.20 43.34,186.10" fill="#00000000" stroke="#333333" stroke-width="1"></polygon></g><g class="link" data-entity-1="ent0012" data-entity-2="ent0013" id="lnk14" data-source-line="28" data-link-type="dependency"><path d="M372.88,319.58 C372.88,303.82 372.88,289.4 372.88,274.19" fill="none" stroke="#333333" stroke-width="1" stroke-dasharray="7,7"></path><polygon points="372.88,269.19 368.88,278.19 372.88,274.19 376.88,278.19 372.88,269.19" fill="#333333" stroke="#333333" stroke-width="1"></polygon><text x="340.88" y="298.83" font-size="13" fill="#000000" xml:space="preserve" style="white-space: pre" font-family="sans-serif">include</text></g><g class="link" data-entity-1="ent0002" data-entity-2="ent0010" id="lnk15" data-source-line="32" data-link-type="dependency"><path d="M173.49,59.44 C193.67,60.41 216.7958,61.5302 245.5358,62.9102" fill="none" stroke="#333333" stroke-width="1"></path><polygon points="250.53,63.15 241.73,58.72 245.54,62.91 241.35,66.71 250.53,63.15" fill="#333333" stroke="#333333" stroke-width="1"></polygon></g><g class="link" data-entity-1="ent0003" data-entity-2="ent0010" id="lnk16" data-source-line="33" data-link-type="dependency"><path d="M181.93,137.8 C193.77,129.21 207.19,120.49 220.45,114 C241.02,103.93 259.4901,97.0741 281.5001,90.4841" fill="none" stroke="#333333" stroke-width="1"></path><polygon points="286.29,89.05 276.52,87.80 281.50,90.48 278.82,95.46 286.29,89.05" fill="#333333" stroke="#333333" stroke-width="1"></polygon></g><g class="link" data-entity-1="ent0003" data-entity-2="ent0011" id="lnk17" data-source-line="35" data-link-type="dependency"><path d="M181.86,167.16 C202.03,166.19 223.0058,165.17 249.2258,163.91" fill="none" stroke="#333333" stroke-width="1"></path><polygon points="254.22,163.67 245.04,160.11 249.23,163.91 245.42,168.10 254.22,163.67" fill="#333333" stroke="#333333" stroke-width="1"></polygon></g><g class="link" data-entity-1="ent0004" data-entity-2="ent0011" id="lnk18" data-source-line="36" data-link-type="dependency"><path d="M162.6,254.87 C176.78,237.68 197.6,215.63 220.45,202 C239.14,190.85 256.0355,183.8322 277.0555,177.4522" fill="none" stroke="#333333" stroke-width="1"></path><polygon points="281.84,176 272.07,174.79 277.06,177.45 274.39,182.44 281.84,176" fill="#333333" stroke="#333333" stroke-width="1"></polygon></g><g class="link" data-entity-1="ent0002" data-entity-2="ent0011" id="lnk19" data-source-line="37" data-link-type="dependency"><path d="M173.47,83.49 C187.09,94.12 203.86,105.85 220.45,114 C241.21,124.2 259.9702,131.0593 282.2102,137.5493" fill="none" stroke="#333333" stroke-width="1"></path><polygon points="287.01,138.95 279.49,132.59 282.21,137.55 277.25,140.27 287.01,138.95" fill="#333333" stroke="#333333" stroke-width="1"></polygon></g><g class="link" data-entity-1="ent0004" data-entity-2="ent0012" id="lnk20" data-source-line="39" data-link-type="dependency"><path d="M162.33,285.56 C191.18,294.16 243.4083,309.722 290.6883,323.812" fill="none" stroke="#333333" stroke-width="1"></path><polygon points="295.48,325.24 288.00,318.84 290.69,323.81 285.71,326.50 295.48,325.24" fill="#333333" stroke="#333333" stroke-width="1"></polygon></g><g class="link" data-entity-1="ent0010" data-entity-2="ent0005" id="lnk21" data-source-line="41" data-link-type="dependency"><path d="M458.45,89.3 C480.69,95.93 504.33,104.18 525.32,114 C538.69,120.26 548.3528,126.1041 559.8328,134.1341" fill="none" stroke="#333333" stroke-width="1"></path><polygon points="563.93,137 558.85,128.56 559.83,134.13 554.26,135.12 563.93,137" fill="#333333" stroke="#333333" stroke-width="1"></polygon></g><g class="link" data-entity-1="ent0011" data-entity-2="ent0005" id="lnk22" data-source-line="42" data-link-type="dependency"><path d="M494.47,158 C520.56,158 540.73,158 558.9,158" fill="none" stroke="#333333" stroke-width="1"></path><polygon points="563.90,158 554.90,154 558.90,158 554.90,162 563.90,158" fill="#333333" stroke="#333333" stroke-width="1"></polygon></g><g class="link" data-entity-1="ent0012" data-entity-2="ent0005" id="lnk23" data-source-line="43" data-link-type="dependency"><path d="M456.17,326.29 C480.51,316.9 505.82,303.84 525.32,286 C551.8,261.76 567.6613,229.1717 578.0113,201.0817" fill="none" stroke="#333333" stroke-width="1"></path>
<polygon points="579.74,196.39 572.88,203.45 578.01,201.08 580.38,206.22 579.74,196.39" fill="#333333" stroke="#333333" stroke-width="1"></polygon></g>

<g class="link">
    <path d="M 160,240 C 180,180 210,120 260,90" fill="none" stroke="#333333" stroke-width="1"></path>
    <polygon points="260,90 250,91 256,96 260,90" fill="#333333" stroke="#333333" stroke-width="1"></polygon>
</g>
</g></svg>


