<?xml version="1.0" encoding="UTF-8"?>
<!-- Do not edit this file with editors other than draw.io -->
<!DOCTYPE svg PUBLIC "-//W3C//DTD SVG 1.1//EN" "http://www.w3.org/Graphics/SVG/1.1/DTD/svg11.dtd">
<svg xmlns="http://www.w3.org/2000/svg" version="1.1" viewBox="0 0 668 829" width="668" height="829"><defs></defs><g><g class="cluster" data-qualified-name="...-.... CrossCrypt . ........" id="ent0009" data-source-line="30"><rect x="268.45" y="7" width="286.92" height="814" fill="#00000000" stroke="#181818" stroke-width="1"></rect><text x="296.29" y="22" font-size="14" fill="#000000" xml:space="preserve" style="white-space: pre" font-weight="bold" font-family="sans-serif">Веб-игра CrossCrypt — Геймплей</text></g><g class="entity" data-qualified-name="...-.... CrossCrypt . .........UC3" id="ent0010" data-source-line="31"><ellipse cx="411.91" cy="64.00" rx="99.69" ry="22.34" fill="#F5F9F5" stroke="#008800" stroke-width="0.50"></ellipse><text x="323.88" y="68.50" font-size="14" fill="#000000" xml:space="preserve" style="white-space: pre" font-family="sans-serif">UC-3: Получение вопросов</text></g><g class="entity" data-qualified-name="...-.... CrossCrypt . .........ChangeQ" id="ent0011" data-source-line="32"><ellipse cx="411.91" cy="163.00" rx="111.84" ry="24.77" fill="#F5F9F5" stroke="#008800" stroke-width="0.50"></ellipse><text x="310.69" y="167.50" font-size="14" fill="#000000" xml:space="preserve" style="white-space: pre" font-family="sans-serif">Динамическая смена вопросов</text></g><g class="entity" data-qualified-name="...-.... CrossCrypt . .........UC4" id="ent0013" data-source-line="35"><ellipse cx="411.91" cy="497.00" rx="127.46" ry="27.89" fill="#F5F9F5" stroke="#008800" stroke-width="0.50"></ellipse><text x="294.05" y="501.50" font-size="14" fill="#000000" xml:space="preserve" style="white-space: pre" font-family="sans-serif">UC-4: Шифрование и передача букв</text></g><g class="entity" data-qualified-name="...-.... CrossCrypt . .........ChangeKeys" id="ent0014" data-source-line="36"><ellipse cx="411.91" cy="598.00" rx="97.63" ry="21.93" fill="#F5F9F5" stroke="#008800" stroke-width="0.50"></ellipse><text x="326.15" y="602.50" font-size="14" fill="#000000" xml:space="preserve" style="white-space: pre" font-family="sans-serif">Смена ключей по таймеру</text></g><g class="entity" data-qualified-name="...-.... CrossCrypt . .........UC5" id="ent0016" data-source-line="39"><ellipse cx="411.91" cy="781.00" rx="109.24" ry="24.25" fill="#F5F9F5" stroke="#008800" stroke-width="0.50"></ellipse><text x="313.49" y="785.50" font-size="14" fill="#000000" xml:space="preserve" style="white-space: pre" font-family="sans-serif">UC-5: Заполнение кроссворда</text></g><g class="entity" data-qualified-name="...-.... CrossCrypt . .........CheckStatus" id="ent0017" data-source-line="40"><ellipse cx="411.91" cy="680.00" rx="112.44" ry="24.89" fill="#F5F9F5" stroke="#008800" stroke-width="0.50"></ellipse><text x="310.04" y="684.50" font-size="14" fill="#000000" xml:space="preserve" style="white-space: pre" font-family="sans-serif">Проверка состояния и таймера</text></g><g class="entity" data-qualified-name="...-.... CrossCrypt . .........Penalty" id="ent0018" data-source-line="41"><ellipse cx="411.91" cy="410.00" rx="106.09" ry="23.62" fill="#FFE6E6" stroke="#CC0000" stroke-width="0.50"></ellipse><text x="389.34" y="402.38" font-size="14" fill="#000000" xml:space="preserve" style="white-space: pre" font-style="italic" font-family="sans-serif">«error»</text><text x="327.66" y="418.38" font-size="14" fill="#000000" xml:space="preserve" style="white-space: pre" font-family="sans-serif">Штраф времени (ошибка)</text></g><g class="entity" data-qualified-name="...-.... CrossCrypt . .........Win" id="ent0019" data-source-line="42"><ellipse cx="411.91" cy="328.00" rx="78.29" ry="23.81" fill="#E6FFE6" stroke="#008800" stroke-width="0.50"></ellipse><text x="378.84" y="321.81" font-size="14" fill="#000000" xml:space="preserve" style="white-space: pre" font-style="italic" font-family="sans-serif">«success»</text><text x="354.02" y="337.81" font-size="14" fill="#000000" xml:space="preserve" style="white-space: pre" font-family="sans-serif">Фиксация победы</text></g><g class="entity" data-qualified-name="...-.... CrossCrypt . .........Lose" id="ent0020" data-source-line="43"><ellipse cx="411.91" cy="246.00" rx="91.47" ry="23.25" fill="#FFE6E6" stroke="#CC0000" stroke-width="0.50"></ellipse><text x="389.35" y="238.92" font-size="14" fill="#000000" xml:space="preserve" style="white-space: pre" font-style="italic" font-family="sans-serif">«error»</text><text x="342.02" y="254.92" font-size="14" fill="#000000" xml:space="preserve" style="white-space: pre" font-family="sans-serif">Фиксация проигрыша</text></g><g class="entity" data-qualified-name="Player" id="ent0001" data-source-line="19"><circle cx="24.43" cy="467.50" r="8" fill="#F1F1F1" stroke="#181818" stroke-width="0.50"></circle><path d="M24.43,475.50 L24.43,502.50 M11.43,483.50 L37.43,483.50 M24.43,502.50 L11.43,517.50 M24.43,502.50 L37.43,517.50" fill="#00000000" stroke="#181818" stroke-width="0.50"></path><text x="6" y="532" font-size="14" fill="#000000" xml:space="preserve" style="white-space: pre" font-family="sans-serif">Игрок</text></g><g class="entity" data-qualified-name="Analyst" id="ent0002" data-source-line="20"><circle cx="142.66" cy="195.50" r="8" fill="#F1F1F1" stroke="#181818" stroke-width="0.50"></circle><path d="M142.66,203.50 L142.66,230.50 M129.66,211.50 L155.66,211.50 M142.66,230.50 L129.66,245.50 M142.66,230.50 L155.66,245.50" fill="#00000000" stroke="#181818" stroke-width="0.50"></path><text x="112.06" y="260" font-size="14" fill="#000000" xml:space="preserve" style="white-space: pre" font-family="sans-serif">Аналитик</text></g><g class="entity" data-qualified-name="Cryptographer" id="ent0003" data-source-line="21"><circle cx="142.66" cy="467.50" r="8" fill="#F1F1F1" stroke="#181818" stroke-width="0.50"></circle><path d="M142.66,475.50 L142.66,502.50 M129.66,483.50 L155.66,483.50 M142.66,502.50 L129.66,517.50 M142.66,502.50 L155.66,517.50" fill="#00000000" stroke="#181818" stroke-width="0.50"></path><text x="103.87" y="532" font-size="14" fill="#000000" xml:space="preserve" style="white-space: pre" font-family="sans-serif">Криптограф</text></g><g class="entity" data-qualified-name="Hacker" id="ent0004" data-source-line="22"><circle cx="142.66" cy="621.50" r="8" fill="#F1F1F1" stroke="#181818" stroke-width="0.50"></circle><path d="M142.66,629.50 L142.66,656.50 M129.66,637.50 L155.66,637.50 M142.66,656.50 L129.66,671.50 M142.66,656.50 L155.66,671.50" fill="#00000000" stroke="#181818" stroke-width="0.50"></path><text x="123.17" y="686" font-size="14" fill="#000000" xml:space="preserve" style="white-space: pre" font-family="sans-serif">Хакер</text></g><g class="entity" data-qualified-name="System" id="ent0005" data-source-line="23"><circle cx="630.56" cy="751.50" r="8" fill="#F1F1F1" stroke="#181818" stroke-width="0.50"></circle><path d="M630.56,759.50 L630.56,786.50 M617.56,767.50 L643.56,767.50 M630.56,786.50 L617.56,801.50 M630.56,786.50 L643.56,801.50" fill="#00000000" stroke="#181818" stroke-width="0.50"></path><text x="602.37" y="816" font-size="14" fill="#000000" xml:space="preserve" style="white-space: pre" font-family="sans-serif">Система</text></g><g class="link" data-entity-1="ent0001" data-entity-2="ent0002" id="lnk6" data-source-line="26" data-link-type="extension"><path d="M48.9124,442.0576 C71.0624,390.2176 103.23,314.94 125.33,263.2" fill="none" stroke="#555555" stroke-width="1"></path><polygon points="41.84,458.61 54.43,444.42 43.39,439.70 41.84,458.61" fill="#00000000" stroke="#555555" stroke-width="1"></polygon></g><g class="link" data-entity-1="ent0001" data-entity-2="ent0003" id="lnk7" data-source-line="27" data-link-type="extension"><path d="M61.34,497 C77.38,497 83.45,497 103.76,497" fill="none" stroke="#555555" stroke-width="1"></path><polygon points="43.34,497 61.34,503 61.34,491 43.34,497" fill="#00000000" stroke="#555555" stroke-width="1"></polygon></g><g class="link" data-entity-1="ent0001" data-entity-2="ent0004" id="lnk8" data-source-line="28" data-link-type="extension"><path d="M54.1843,535.0967 C75.7043,563.6067 100.81,596.88 122.77,625.97" fill="none" stroke="#555555" stroke-width="1"></path><polygon points="43.34,520.73 49.40,538.71 58.97,531.48 43.34,520.73" fill="#00000000" stroke="#555555" stroke-width="1"></polygon></g><g class="link" data-entity-1="ent0011" data-entity-2="ent0010" id="lnk12" data-source-line="33" data-link-type="dependency"><path d="M411.91,137.76 C411.91,122.07 411.91,107.04 411.91,91.82" fill="none" stroke="#555555" stroke-width="1" stroke-dasharray="7,7"></path><polygon points="411.91,86.82 407.91,95.82 411.91,91.82 415.91,95.82 411.91,86.82" fill="#555555" stroke="#555555" stroke-width="1"></polygon><text x="380.91" y="116.79" font-size="13" fill="#000000" xml:space="preserve" style="white-space: pre" font-family="sans-serif">extend</text></g><g class="link" data-entity-1="ent0014" data-entity-2="ent0013" id="lnk15" data-source-line="37" data-link-type="dependency"><path d="M411.91,575.58 C411.91,560.71 411.91,546.06 411.91,530.13" fill="none" stroke="#555555" stroke-width="1" stroke-dasharray="7,7"></path><polygon points="411.91,525.13 407.91,534.13 411.91,530.13 415.91,534.13 411.91,525.13" fill="#555555" stroke="#555555" stroke-width="1"></polygon><text x="380.91" y="554.98" font-size="13" fill="#000000" xml:space="preserve" style="white-space: pre" font-family="sans-serif">extend</text></g><g class="link" data-entity-1="ent0016" data-entity-2="ent0017" id="lnk21" data-source-line="45" data-link-type="dependency"><path d="M411.91,756.29 C411.91,740.76 411.91,725.77 411.91,710.15" fill="none" stroke="#555555" stroke-width="1" stroke-dasharray="7,7"></path><polygon points="411.91,705.15 407.91,714.15 411.91,710.15 415.91,714.15 411.91,705.15" fill="#555555" stroke="#555555" stroke-width="1"></polygon><text x="379.91" y="735.32" font-size="13" fill="#000000" xml:space="preserve" style="white-space: pre" font-family="sans-serif">include</text></g><g class="link" data-entity-1="ent0018" data-entity-2="ent0016" id="lnk22" data-source-line="46" data-link-type="dependency"><path d="M315.55,420.02 C294.99,426.37 275.09,436.36 260.45,452 C232.06,482.32 245.69,502.18 241.44,543.5 C233.29,622.86 211.64,658.89 260.45,722 C276.85,743.21 297.2069,755.1591 322.2769,763.8691" fill="none" stroke="#555555" stroke-width="1" stroke-dasharray="7,7"></path><polygon points="327,765.51 319.81,758.78 322.28,763.87 317.19,766.33 327,765.51" fill="#555555" stroke="#555555" stroke-width="1"></polygon><text x="212.45" y="556.50" font-size="13" fill="#000000" xml:space="preserve" style="white-space: pre" font-family="sans-serif">extend</text></g><g class="link" data-entity-1="ent0019" data-entity-2="ent0016" id="lnk23" data-source-line="47" data-link-type="dependency"><path d="M334.39,331.66 C307.24,336.95 278.95,347.72 260.45,369 C255.99,374.13 238.02,470.87 241.44,537.5 C245.67,619.83 210.49,656.43 260.45,722 C276.61,743.21 296.759,755.1631 321.699,763.8631" fill="none" stroke="#555555" stroke-width="1" stroke-dasharray="7,7"></path><polygon points="326.42,765.51 319.24,758.77 321.70,763.86 316.60,766.32 326.42,765.51" fill="#555555" stroke="#555555" stroke-width="1"></polygon><text x="212.45" y="533.50" font-size="13" fill="#000000" xml:space="preserve" style="white-space: pre" font-family="sans-serif">extend</text></g><g class="link" data-entity-1="ent0020" data-entity-2="ent0016" id="lnk24" data-source-line="48" data-link-type="dependency"><path d="M322.67,251.55 C299.08,257.47 275.91,268.15 260.45,287 C176.68,389.08 232.44,451.76 241.44,583.5 C245.67,645.49 221.97,673.22 260.45,722 C277.05,743.05 297.4679,754.9562 322.5179,763.6762" fill="none" stroke="#555555" stroke-width="1" stroke-dasharray="7,7"></path><polygon points="327.24,765.32 320.06,758.58 322.52,763.68 317.43,766.14 327.24,765.32" fill="#555555" stroke="#555555" stroke-width="1"></polygon><text x="212.45" y="579.50" font-size="13" fill="#000000" xml:space="preserve" style="white-space: pre" font-family="sans-serif">extend</text></g><g class="link" data-entity-1="ent0002" data-entity-2="ent0010" id="lnk25" data-source-line="51" data-link-type="dependency"><path d="M173.37,192.91 C195.6,170.37 227.71,140.84 260.45,121 C287.92,104.35 316.3308,92.7537 344.5208,83.2737" fill="none" stroke="#555555" stroke-width="1"></path><polygon points="349.26,81.68 339.45,80.76 344.52,83.27 342.00,88.34 349.26,81.68" fill="#555555" stroke="#555555" stroke-width="1"></polygon></g><g class="link" data-entity-1="ent0003" data-entity-2="ent0013" id="lnk26" data-source-line="52" data-link-type="dependency"><path d="M181.66,497 C208.76,497 241.86,497 279.24,497" fill="none" stroke="#555555" stroke-width="1"></path><polygon points="284.24,497 275.24,493 279.24,497 275.24,501 284.24,497" fill="#555555" stroke="#555555" stroke-width="1"></polygon></g><g class="link" data-entity-1="ent0004" data-entity-2="ent0016" id="lnk27" data-source-line="53" data-link-type="dependency"><path d="M162.5,663.86 C185.13,678.96 224.51,704.2 260.45,722 C289.74,736.51 318.8419,748.2917 346.9719,758.7217" fill="none" stroke="#555555" stroke-width="1"></path><polygon points="351.66,760.46 344.61,753.58 346.97,758.72 341.83,761.08 351.66,760.46" fill="#555555" stroke="#555555" stroke-width="1"></polygon></g><g class="link" data-entity-1="ent0016" data-entity-2="ent0005" id="lnk28" data-source-line="54" data-link-type="dependency"><path d="M521.55,781 C551.54,781 576.49,781 597.22,781" fill="none" stroke="#555555" stroke-width="1"></path><polygon points="602.22,781 593.22,777 597.22,781 593.22,785 602.22,781" fill="#555555" stroke="#555555" stroke-width="1"></polygon></g></g></svg>