<?xml version="1.0" encoding="UTF-8"?>
<!-- Do not edit this file with editors other than draw.io -->
<!DOCTYPE svg PUBLIC "-//W3C//DTD SVG 1.1//EN" "http://www.w3.org/Graphics/SVG/1.1/DTD/svg11.dtd">
<svg xmlns="http://www.w3.org/2000/svg" version="1.1" viewBox="0 0 489 290" width="489" height="290"><defs></defs><g><g class="cluster" data-qualified-name="...-.... CrossCrypt . ....." id="ent0003" data-source-line="14"><rect x="89.87" y="7" width="286.58" height="275" fill="#00000000" stroke="#181818" stroke-width="1"></rect><text x="129.17" y="22" font-size="14" fill="#000000" xml:space="preserve" style="white-space: pre" font-weight="bold" font-family="sans-serif">Веб-игра CrossCrypt — Лобби</text></g><g class="entity" data-qualified-name="...-.... CrossCrypt . ......UC1" id="ent0004" data-source-line="15"><ellipse cx="233.16" cy="169.00" rx="127.29" ry="27.86" fill="#FFF2CC" stroke="#D6B656" stroke-width="0.50"></ellipse><text x="124.09" y="169.58" font-size="14" fill="#000000" xml:space="preserve" style="white-space: pre" font-family="sans-serif">UC-1: Создание игровой комнаты</text><text x="159.88" y="185.58" font-size="14" fill="#000000" xml:space="preserve" style="white-space: pre" font-family="sans-serif">и подключение друзей</text></g><g class="entity" data-qualified-name="...-.... CrossCrypt . ......AuthDiscord" id="ent0005" data-source-line="16"><ellipse cx="233.16" cy="66.00" rx="108.48" ry="24.10" fill="#FFF2CC" stroke="#D6B656" stroke-width="0.50"></ellipse><text x="135.56" y="70.50" font-size="14" fill="#000000" xml:space="preserve" style="white-space: pre" font-family="sans-serif">Авторизоваться через Discord</text></g><g class="entity" data-qualified-name="...-.... CrossCrypt . ......UC2" id="ent0006" data-source-line="17"><ellipse cx="233.16" cy="249.00" rx="72.29" ry="16.86" fill="#FFF2CC" stroke="#D6B656" stroke-width="0.50"></ellipse><text x="176.58" y="253.50" font-size="14" fill="#000000" xml:space="preserve" style="white-space: pre" font-family="sans-serif">UC-2: Старт игры</text></g><g class="entity" data-qualified-name="Player" id="ent0001" data-source-line="11"><circle cx="24.43" cy="180.50" r="8" fill="#F1F1F1" stroke="#181818" stroke-width="0.50"></circle><path d="M24.43,188.50 L24.43,215.50 M11.43,196.50 L37.43,196.50 M24.43,215.50 L11.43,230.50 M24.43,215.50 L37.43,230.50" fill="#00000000" stroke="#181818" stroke-width="0.50"></path><text x="6" y="245" font-size="14" fill="#000000" xml:space="preserve" style="white-space: pre" font-family="sans-serif">Игрок</text></g><g class="entity" data-qualified-name="System" id="ent0002" data-source-line="12"><circle cx="451.64" cy="175.50" r="8" fill="#F1F1F1" stroke="#181818" stroke-width="0.50"></circle><path d="M451.64,183.50 L451.64,210.50 M438.64,191.50 L464.64,191.50 M451.64,210.50 L438.64,225.50 M451.64,210.50 L464.64,225.50" fill="#00000000" stroke="#181818" stroke-width="0.50"></path><text x="423.45" y="240" font-size="14" fill="#000000" xml:space="preserve" style="white-space: pre" font-family="sans-serif">Система</text></g><g class="link" data-entity-1="ent0004" data-entity-2="ent0005" id="lnk7" data-source-line="19" data-link-type="dependency"><path d="M233.16,140.85 C233.16,125.01 233.16,110.43 233.16,95.26" fill="none" stroke="#333333" stroke-width="1" stroke-dasharray="7,7"></path><polygon points="233.16,90.26 229.16,99.26 233.16,95.26 237.16,99.26 233.16,90.26" fill="#333333" stroke="#333333" stroke-width="1"></polygon><text x="201.16" y="120.12" font-size="13" fill="#000000" xml:space="preserve" style="white-space: pre" font-family="sans-serif">include</text></g><g class="link" data-entity-1="ent0001" data-entity-2="ent0004" id="lnk8" data-source-line="22" data-link-type="dependency"><path d="M43.06,206.5 C64.34,202.28 96.8856,195.8332 132.8656,188.6932" fill="none" stroke="#333333" stroke-width="1"></path><polygon points="137.77,187.72 128.16,185.55 132.87,188.69 129.72,193.40 137.77,187.72" fill="#333333" stroke="#333333" stroke-width="1"></polygon></g><g class="link" data-entity-1="ent0001" data-entity-2="ent0006" id="lnk9" data-source-line="23" data-link-type="dependency"><path d="M43.06,213.33 C72.16,218.81 126.5266,229.0732 171.0066,237.4632" fill="none" stroke="#333333" stroke-width="1"></path><polygon points="175.92,238.39 167.82,232.79 171.01,237.46 166.33,240.65 175.92,238.39" fill="#333333" stroke="#333333" stroke-width="1"></polygon></g><g class="link" data-entity-1="ent0004" data-entity-2="ent0002" id="lnk10" data-source-line="24" data-link-type="dependency"><path d="M335.74,185.89 C367.82,191.23 395.7477,195.8702 418.0677,199.5802" fill="none" stroke="#333333" stroke-width="1"></path><polygon points="423,200.40 414.78,194.98 418.07,199.58 413.47,202.87 423,200.40" fill="#333333" stroke="#333333" stroke-width="1"></polygon></g><g class="link" data-entity-1="ent0006" data-entity-2="ent0002" id="lnk11" data-source-line="25" data-link-type="dependency"><path d="M288.79,237.9 C331.62,229.19 384.5503,218.4365 418.2303,211.5865" fill="none" stroke="#333333" stroke-width="1"></path><polygon points="423.13,210.59 413.51,208.46 418.23,211.59 415.11,216.30 423.13,210.59" fill="#333333" stroke="#333333" stroke-width="1"></polygon></g></g></svg>