<?xml version="1.0" encoding="UTF-8"?>
<!-- Do not edit this file with editors other than draw.io -->
<!DOCTYPE svg PUBLIC "-//W3C//DTD SVG 1.1//EN" "http://www.w3.org/Graphics/SVG/1.1/DTD/svg11.dtd">
<svg xmlns="http://www.w3.org/2000/svg" version="1.1" viewBox="0 0 557 666" width="557" height="666"><defs></defs><g><g class="cluster" data-qualified-name="...-.... CrossCrypt . ....." id="ent0003" data-source-line="23"><rect x="129.87" y="7" width="314.57" height="651" fill="#00000000" stroke="#181818" stroke-width="1"></rect><text x="183.16" y="22" font-size="14" fill="#000000" xml:space="preserve" style="white-space: pre" font-weight="bold" font-family="sans-serif">Веб-игра CrossCrypt — Лобби</text></g><g class="entity" data-qualified-name="...-.... CrossCrypt . ......UC1" id="ent0004" data-source-line="24"><ellipse cx="287.15" cy="168.00" rx="141.29" ry="30.66" fill="#E6F2FF" stroke="#0066CC" stroke-width="0.50"></ellipse><text x="154.77" y="172.50" font-size="14" fill="#000000" xml:space="preserve" style="white-space: pre" font-family="sans-serif">UC-1: Создание комнаты и подключение</text></g><g class="entity" data-qualified-name="...-.... CrossCrypt . ......AuthDiscord" id="ent0005" data-source-line="25"><ellipse cx="287.15" cy="64.00" rx="99.55" ry="22.31" fill="#E6F2FF" stroke="#0066CC" stroke-width="0.50"></ellipse><text x="199.28" y="68.50" font-size="14" fill="#000000" xml:space="preserve" style="white-space: pre" font-family="sans-serif">Авторизация через Discord</text></g><g class="entity" data-qualified-name="...-.... CrossCrypt . ......ErrFull" id="ent0006" data-source-line="26"><ellipse cx="287.15" cy="618.00" rx="107.30" ry="23.86" fill="#FFE6E6" stroke="#CC0000" stroke-width="0.50"></ellipse><text x="264.59" y="610.13" font-size="14" fill="#000000" xml:space="preserve" style="white-space: pre" font-style="italic" font-family="sans-serif">«error»</text><text x="200.58" y="626.13" font-size="14" fill="#000000" xml:space="preserve" style="white-space: pre" font-family="sans-serif">Ошибка: Лобби заполнено</text></g><g class="entity" data-qualified-name="...-.... CrossCrypt . ......ErrNotFound" id="ent0007" data-source-line="27"><ellipse cx="287.15" cy="534.00" rx="112.82" ry="24.96" fill="#FFE6E6" stroke="#CC0000" stroke-width="0.50"></ellipse><text x="264.58" y="525.01" font-size="14" fill="#000000" xml:space="preserve" style="white-space: pre" font-style="italic" font-family="sans-serif">«error»</text><text x="190.71" y="541.01" font-size="14" fill="#000000" xml:space="preserve" style="white-space: pre" font-family="sans-serif">Ошибка: Комната не найдена</text></g><g class="entity" data-qualified-name="...-.... CrossCrypt . ......UC2" id="ent0011" data-source-line="33"><ellipse cx="287.15" cy="272.00" rx="98.69" ry="22.14" fill="#E6F2FF" stroke="#0066CC" stroke-width="0.50"></ellipse><text x="200.22" y="276.50" font-size="14" fill="#000000" xml:space="preserve" style="white-space: pre" font-family="sans-serif">UC-2: Выбор игровой роли</text></g><g class="entity" data-qualified-name="...-.... CrossCrypt . ......ErrRoleTaken" id="ent0012" data-source-line="34"><ellipse cx="287.15" cy="451.00" rx="91.03" ry="23.26" fill="#FFE6E6" stroke="#CC0000" stroke-width="0.50"></ellipse><text x="264.58" y="443.92" font-size="14" fill="#000000" xml:space="preserve" style="white-space: pre" font-style="italic" font-family="sans-serif">«error»</text><text x="217.61" y="459.92" font-size="14" fill="#000000" xml:space="preserve" style="white-space: pre" font-family="sans-serif">Ошибка: Роль занята</text></g><g class="entity" data-qualified-name="...-.... CrossCrypt . ......StartMatch" id="ent0013" data-source-line="35"><ellipse cx="287.15" cy="369.00" rx="106.18" ry="23.64" fill="#E6FFE6" stroke="#008800" stroke-width="0.50"></ellipse><text x="254.08" y="361.95" font-size="14" fill="#000000" xml:space="preserve" style="white-space: pre" font-style="italic" font-family="sans-serif">«success»</text><text x="204.87" y="377.95" font-size="14" fill="#000000" xml:space="preserve" style="white-space: pre" font-family="sans-serif">Активация запуска матча</text></g><g class="entity" data-qualified-name="Player" id="ent0001" data-source-line="20"><circle cx="24.43" cy="190.50" r="8" fill="#F1F1F1" stroke="#181818" stroke-width="0.50"></circle><path d="M24.43,198.50 L24.43,225.50 M11.43,206.50 L37.43,206.50 M24.43,225.50 L11.43,240.50 M24.43,225.50 L37.43,240.50" fill="#00000000" stroke="#181818" stroke-width="0.50"></path><text x="6" y="255" font-size="14" fill="#000000" xml:space="preserve" style="white-space: pre" font-family="sans-serif">Игрок</text></g><g class="entity" data-qualified-name="System" id="ent0002" data-source-line="21"><circle cx="519.63" cy="183.50" r="8" fill="#F1F1F1" stroke="#181818" stroke-width="0.50"></circle><path d="M519.63,191.50 L519.63,218.50 M506.63,199.50 L532.63,199.50 M519.63,218.50 L506.63,233.50 M519.63,218.50 L532.63,233.50" fill="#00000000" stroke="#181818" stroke-width="0.50"></path><text x="491.44" y="248" font-size="14" fill="#000000" xml:space="preserve" style="white-space: pre" font-family="sans-serif">Система</text></g><g class="link" data-entity-1="ent0004" data-entity-2="ent0005" id="lnk8" data-source-line="29" data-link-type="dependency"><path d="M287.15,137.08 C287.15,120.91 287.15,106.47 287.15,91.71" fill="none" stroke="#555555" stroke-width="1" stroke-dasharray="7,7"></path><polygon points="287.15,86.71 283.15,95.71 287.15,91.71 291.15,95.71 287.15,86.71" fill="#555555" stroke="#555555" stroke-width="1"></polygon><text x="255.15" y="116.33" font-size="13" fill="#000000" xml:space="preserve" style="white-space: pre" font-family="sans-serif">include</text></g><g class="link" data-entity-1="ent0006" data-entity-2="ent0004" id="lnk9" data-source-line="30" data-link-type="dependency"><path d="M183.24,611.69 C159.92,605.32 137.49,594.39 121.87,576 C66.54,510.9 108.88,469.85 105.16,384.5 C102.2,316.38 79.95,285.78 121.87,232 C137.28,212.22 154.9963,200.4285 178.3063,190.9785" fill="none" stroke="#555555" stroke-width="1" stroke-dasharray="7,7"></path><polygon points="182.94,189.10 173.10,188.77 178.31,190.98 176.10,196.19 182.94,189.10" fill="#555555" stroke="#555555" stroke-width="1"></polygon><text x="73.87" y="380.50" font-size="13" fill="#000000" xml:space="preserve" style="white-space: pre" font-family="sans-serif">extend</text></g><g class="link" data-entity-1="ent0007" data-entity-2="ent0004" id="lnk10" data-source-line="31" data-link-type="dependency"><path d="M176.05,529.47 C147.23,522.15 120.11,508.19 105.16,482.5 C100.86,475.1 65.45,308.35 121.87,232 C136.68,211.95 154.0421,200.0828 177.1721,190.6228" fill="none" stroke="#555555" stroke-width="1" stroke-dasharray="7,7"></path><polygon points="181.80,188.73 171.96,188.43 177.17,190.62 174.98,195.84 181.80,188.73" fill="#555555" stroke="#555555" stroke-width="1"></polygon><text x="73.87" y="478.50" font-size="13" fill="#000000" xml:space="preserve" style="white-space: pre" font-family="sans-serif">extend</text></g><g class="link" data-entity-1="ent0011" data-entity-2="ent0004" id="lnk14" data-source-line="37" data-link-type="dependency"><path d="M287.15,249.43 C287.15,234.62 287.15,220.05 287.15,203.81" fill="none" stroke="#555555" stroke-width="1" stroke-dasharray="7,7"></path><polygon points="287.15,198.81 283.15,207.81 287.15,203.81 291.15,207.81 287.15,198.81" fill="#555555" stroke="#555555" stroke-width="1"></polygon><text x="255.15" y="228.76" font-size="13" fill="#000000" xml:space="preserve" style="white-space: pre" font-family="sans-serif">include</text></g><g class="link" data-entity-1="ent0012" data-entity-2="ent0011" id="lnk15" data-source-line="38" data-link-type="dependency"><path d="M197.38,446.79 C169.88,441.17 141.68,430.32 121.87,410 C92.7,380.09 79.45,350.43 105.16,317.5 C125.11,291.96 152.1225,280.3044 183.7125,274.4944" fill="none" stroke="#555555" stroke-width="1" stroke-dasharray="7,7"></path><polygon points="188.63,273.59 179.05,271.28 183.71,274.49 180.50,279.15 188.63,273.59" fill="#555555" stroke="#555555" stroke-width="1"></polygon><text x="73.87" y="330.50" font-size="13" fill="#000000" xml:space="preserve" style="white-space: pre" font-family="sans-serif">extend</text></g><g class="link" data-entity-1="ent0013" data-entity-2="ent0011" id="lnk16" data-source-line="39" data-link-type="dependency"><path d="M287.15,345.02 C287.15,329.54 287.15,314.53 287.15,299.37" fill="none" stroke="#555555" stroke-width="1" stroke-dasharray="7,7"></path><polygon points="287.15,294.37 283.15,303.37 287.15,299.37 291.15,303.37 287.15,294.37" fill="#555555" stroke="#555555" stroke-width="1"></polygon><text x="256.15" y="324.25" font-size="13" fill="#000000" xml:space="preserve" style="white-space: pre" font-family="sans-serif">extend</text></g><g class="link" data-entity-1="ent0001" data-entity-2="ent0004" id="lnk17" data-source-line="42" data-link-type="dependency"><path d="M43.35,216.43 C71.88,210.74 124.8366,200.1782 176.9166,189.7882" fill="none" stroke="#555555" stroke-width="1"></path><polygon points="181.82,188.81 172.21,186.65 176.92,189.79 173.78,194.49 181.82,188.81" fill="#555555" stroke="#555555" stroke-width="1"></polygon></g><g class="link" data-entity-1="ent0001" data-entity-2="ent0011" id="lnk18" data-source-line="43" data-link-type="dependency"><path d="M43.35,223.57 C77.58,230.4 149.1067,244.6615 207.1367,256.2415" fill="none" stroke="#555555" stroke-width="1"></path><polygon points="212.04,257.22 204.00,251.54 207.14,256.24 202.43,259.38 212.04,257.22" fill="#555555" stroke="#555555" stroke-width="1"></polygon></g><g class="link" data-entity-1="ent0004" data-entity-2="ent0002" id="lnk19" data-source-line="44" data-link-type="dependency"><path d="M393.27,188.52 C429.37,195.57 461.8825,201.9226 486.3325,206.6926" fill="none" stroke="#555555" stroke-width="1"></path><polygon points="491.24,207.65 483.17,202.00 486.33,206.69 481.64,209.85 491.24,207.65" fill="#555555" stroke="#555555" stroke-width="1"></polygon></g><g class="link" data-entity-1="ent0011" data-entity-2="ent0002" id="lnk20" data-source-line="45" data-link-type="dependency"><path d="M353.58,255.25 C399.1,243.6 452.606,229.8994 486.336,221.2694" fill="none" stroke="#555555" stroke-width="1"></path><polygon points="491.18,220.03 481.47,218.39 486.34,221.27 483.45,226.14 491.18,220.03" fill="#555555" stroke="#555555" stroke-width="1"></polygon></g></g></svg>