<?xml version="1.0" encoding="UTF-8"?>
<!-- Do not edit this file with editors other than draw.io -->
<!DOCTYPE svg PUBLIC "-//W3C//DTD SVG 1.1//EN" "http://www.w3.org/Graphics/SVG/1.1/DTD/svg11.dtd">
<svg xmlns="http://www.w3.org/2000/svg" version="1.1" viewBox="0 0 578 116" width="578" height="116"><defs></defs><g><g class="cluster" data-qualified-name="...-.... CrossCrypt . ...... .........." id="ent0003" data-source-line="14"><rect x="151.01" y="7" width="317" height="101" fill="#00000000" stroke="#181818" stroke-width="1"></rect><text x="158.55" y="22" font-size="14" fill="#000000" xml:space="preserve" style="white-space: pre" font-weight="bold" font-family="sans-serif">Веб-игра CrossCrypt — Панель управления</text></g><g class="entity" data-qualified-name="...-.... CrossCrypt . ...... ...........UC6" id="ent0004" data-source-line="15"><ellipse cx="309.01" cy="67.00" rx="114.12" ry="25.22" fill="#FFF2CC" stroke="#D6B656" stroke-width="0.50"></ellipse><text x="221.64" y="65.77" font-size="14" fill="#000000" xml:space="preserve" style="white-space: pre" font-family="sans-serif">UC-6: Модерация игрового</text><text x="245.72" y="81.77" font-size="14" fill="#000000" xml:space="preserve" style="white-space: pre" font-family="sans-serif">контента в словаре</text></g><g class="entity" data-qualified-name="Admin" id="ent0001" data-source-line="11"><circle cx="56.50" cy="37.50" r="8" fill="#F1F1F1" stroke="#181818" stroke-width="0.50"></circle><path d="M56.50,45.50 L56.50,72.50 M43.50,53.50 L69.50,53.50 M56.50,72.50 L43.50,87.50 M56.50,72.50 L69.50,87.50" fill="#00000000" stroke="#181818" stroke-width="0.50"></path><text x="6" y="102" font-size="14" fill="#000000" xml:space="preserve" style="white-space: pre" font-family="sans-serif">Администратор</text></g><g class="entity" data-qualified-name="System" id="ent0002" data-source-line="12"><circle cx="540.20" cy="37.50" r="8" fill="#F1F1F1" stroke="#181818" stroke-width="0.50"></circle><path d="M540.20,45.50 L540.20,72.50 M527.20,53.50 L553.20,53.50 M540.20,72.50 L527.20,87.50 M540.20,72.50 L553.20,87.50" fill="#00000000" stroke="#181818" stroke-width="0.50"></path><text x="512.01" y="102" font-size="14" fill="#000000" xml:space="preserve" style="white-space: pre" font-family="sans-serif">Система</text></g><g class="link" data-entity-1="ent0001" data-entity-2="ent0004" id="lnk5" data-source-line="18" data-link-type="dependency"><path d="M107.29,67 C132.41,67 158.97,67 189.59,67" fill="none" stroke="#333333" stroke-width="1"></path><polygon points="194.59,67 185.59,63 189.59,67 185.59,71 194.59,67" fill="#333333" stroke="#333333" stroke-width="1"></polygon></g><g class="link" data-entity-1="ent0004" data-entity-2="ent0002" id="lnk6" data-source-line="19" data-link-type="dependency"><path d="M423.6,67 C456.46,67 484.44,67 506.72,67" fill="none" stroke="#333333" stroke-width="1"></path><polygon points="511.72,67 502.72,63 506.72,67 502.72,71 511.72,67" fill="#333333" stroke="#333333" stroke-width="1"></polygon></g></g></svg>