<?xml version="1.0" encoding="UTF-8"?>
<!-- Do not edit this file with editors other than draw.io -->
<!DOCTYPE svg PUBLIC "-//W3C//DTD SVG 1.1//EN" "http://www.w3.org/Graphics/SVG/1.1/DTD/svg11.dtd">
<svg xmlns="http://www.w3.org/2000/svg" version="1.1" viewBox="0 0 584 210" width="584" height="210"><defs></defs><g><g class="cluster" data-qualified-name="...-.... CrossCrypt . ...... .........." id="ent0003" data-source-line="18"><rect x="154.01" y="7" width="317" height="195" fill="#00000000" stroke="#181818" stroke-width="1"></rect><text x="161.55" y="22" font-size="14" fill="#000000" xml:space="preserve" style="white-space: pre" font-weight="bold" font-family="sans-serif">Веб-игра CrossCrypt — Панель управления</text></g><g class="entity" data-qualified-name="...-.... CrossCrypt . ...... ...........UC6" id="ent0004" data-source-line="19"><ellipse cx="312.01" cy="64.00" rx="97.83" ry="21.97" fill="#FFFBF5" stroke="#B8860B" stroke-width="0.50"></ellipse><text x="226.03" y="68.50" font-size="14" fill="#000000" xml:space="preserve" style="white-space: pre" font-family="sans-serif">UC-6: Модерация словаря</text></g><g class="entity" data-qualified-name="...-.... CrossCrypt . ...... ...........ErrValid" id="ent0005" data-source-line="20"><ellipse cx="312.01" cy="162.00" rx="108.90" ry="24.18" fill="#FFE6E6" stroke="#CC0000" stroke-width="0.50"></ellipse><text x="289.45" y="153.81" font-size="14" fill="#000000" xml:space="preserve" style="white-space: pre" font-style="italic" font-family="sans-serif">«error»</text><text x="222.46" y="169.81" font-size="14" fill="#000000" xml:space="preserve" style="white-space: pre" font-family="sans-serif">Ошибка валидации данных</text></g><g class="entity" data-qualified-name="Admin" id="ent0001" data-source-line="15"><circle cx="56.50" cy="34.50" r="8" fill="#F1F1F1" stroke="#181818" stroke-width="0.50"></circle><path d="M56.50,42.50 L56.50,69.50 M43.50,50.50 L69.50,50.50 M56.50,69.50 L43.50,84.50 M56.50,69.50 L69.50,84.50" fill="#00000000" stroke="#181818" stroke-width="0.50"></path><text x="6" y="99" font-size="14" fill="#000000" xml:space="preserve" style="white-space: pre" font-family="sans-serif">Администратор</text></g><g class="entity" data-qualified-name="System" id="ent0002" data-source-line="16"><circle cx="546.20" cy="34.50" r="8" fill="#F1F1F1" stroke="#181818" stroke-width="0.50"></circle><path d="M546.20,42.50 L546.20,69.50 M533.20,50.50 L559.20,50.50 M546.20,69.50 L533.20,84.50 M546.20,69.50 L559.20,84.50" fill="#00000000" stroke="#181818" stroke-width="0.50"></path><text x="518.01" y="99" font-size="14" fill="#000000" xml:space="preserve" style="white-space: pre" font-family="sans-serif">Система</text></g><g class="link" data-entity-1="ent0005" data-entity-2="ent0004" id="lnk6" data-source-line="22" data-link-type="dependency"><path d="M312.01,137.52 C312.01,121.76 312.01,106.44 312.01,91.16" fill="none" stroke="#555555" stroke-width="1" stroke-dasharray="7,7"></path><polygon points="312.01,86.16 308.01,95.16 312.01,91.16 316.01,95.16 312.01,86.16" fill="#555555" stroke="#555555" stroke-width="1"></polygon><text x="281.01" y="116.39" font-size="13" fill="#000000" xml:space="preserve" style="white-space: pre" font-family="sans-serif">extend</text></g><g class="link" data-entity-1="ent0001" data-entity-2="ent0004" id="lnk7" data-source-line="25" data-link-type="dependency"><path d="M107.29,64 C137.64,64 172.47,64 208.85,64" fill="none" stroke="#555555" stroke-width="1"></path><polygon points="213.85,64 204.85,60 208.85,64 204.85,68 213.85,64" fill="#555555" stroke="#555555" stroke-width="1"></polygon></g><g class="link" data-entity-1="ent0004" data-entity-2="ent0002" id="lnk8" data-source-line="26" data-link-type="dependency"><path d="M410.13,64 C449.15,64 486.11,64 512.73,64" fill="none" stroke="#555555" stroke-width="1"></path><polygon points="517.73,64 508.73,60 512.73,64 508.73,68 517.73,64" fill="#555555" stroke="#555555" stroke-width="1"></polygon></g></g></svg>